<?xml version="1.0" standalone="no"?>
<!DOCTYPE svg PUBLIC "-//W3C//DTD SVG 1.1//EN" "http://www.w3.org/Graphics/SVG/1.1/DTD/svg11.dtd" >
<svg xmlns="http://www.w3.org/2000/svg">
<metadata></metadata>
<defs>
<font id="pantonlight" horiz-adv-x="1093" >
<font-face units-per-em="2048" ascent="1516" descent="-532" />
<missing-glyph horiz-adv-x="499" />
<glyph horiz-adv-x="0" />
<glyph horiz-adv-x="682" />
<glyph unicode=" "  horiz-adv-x="499" />
<glyph unicode="&#x09;" horiz-adv-x="499" />
<glyph unicode="&#xa0;" horiz-adv-x="499" />
<glyph unicode="!" horiz-adv-x="387" d="M133 45v12q0 32 12 44t43 12h11q32 0 44.5 -12t12.5 -44v-12q0 -31 -12.5 -43t-44.5 -12h-11q-31 0 -43 11.5t-12 43.5zM147 1491q0 25 23 25h47q25 0 25 -25l-13 -1159q0 -23 -24 -23h-23q-13 0 -17.5 5t-4.5 18z" />
<glyph unicode="&#x22;" horiz-adv-x="548" d="M139 1012v420q0 13 4.5 17.5t18.5 4.5h39q14 0 18.5 -4.5t3.5 -17.5l-16 -420q0 -12 -5 -16.5t-18 -4.5h-22q-13 0 -18 4.5t-5 16.5zM336 1012v420q0 14 4 18t18 4h41q13 0 18 -4.5t5 -17.5l-16 -420q-2 -12 -7 -16.5t-18 -4.5h-23q-13 0 -17.5 4.5t-4.5 16.5z" />
<glyph unicode="#" horiz-adv-x="1361" d="M76 436l10 37q5 14 11.5 18.5t21.5 4.5h233l115 383h-236q-13 0 -17 5t-1 17l12 37q5 23 33 23h234l102 339q3 14 9.5 19.5t21.5 5.5h41q24 0 16 -25l-102 -339h358l104 339q3 14 9.5 19.5t19.5 5.5h39q15 0 19 -5.5t1 -19.5l-102 -339h240q24 0 18 -25l-12 -37 q-5 -20 -31 -20h-239l-115 -383h239q27 0 19 -25l-12 -37q-5 -20 -31 -20h-238l-116 -389q-6 -15 -12.5 -20t-20.5 -5h-41q-25 0 -17 25l117 389h-360l-117 -389q-3 -25 -29 -25h-41q-13 0 -17 6t1 19l115 389h-236q-24 0 -16 22zM440 496h361l114 383h-360z" />
<glyph unicode="$" horiz-adv-x="1206" d="M90 365q-11 27 16 38l35 13q13 5 21.5 1.5t15.5 -18.5q32 -76 67 -128.5t84.5 -93.5t117 -61t155.5 -20q408 0 408 307q0 68 -24.5 117.5t-52 76t-94 46t-100.5 24.5t-122 15q-10 1 -15 2q-48 5 -78.5 9t-76 12t-75.5 17t-67.5 24t-62.5 33t-50.5 44.5t-40.5 58.5 t-24.5 74t-9.5 91q0 186 108.5 289t325.5 110v143q0 25 24 25h39q25 0 25 -25v-143q119 -8 205 -49.5t141 -107t107 -171.5q14 -25 -15 -37l-37 -14q-12 -7 -19.5 -5t-14.5 15q-50 99 -99.5 156.5t-130.5 91t-198 33.5q-365 0 -365 -311q0 -48 12.5 -86t30.5 -64t52 -46.5 t62.5 -31.5t78 -20.5t81 -13.5t88.5 -9q91 -10 142.5 -18t126.5 -33t115.5 -61t71 -102t30.5 -156q0 -186 -116.5 -286.5t-348.5 -109.5v-145q0 -25 -25 -25h-39q-24 0 -24 25v145q-181 10 -288 99.5t-173 255.5z" />
<glyph unicode="%" horiz-adv-x="1654" d="M78 1032v154q0 140 82 219.5t235 79.5t234.5 -79.5t81.5 -219.5v-154q0 -140 -81.5 -218.5t-234.5 -78.5t-235 78.5t-82 218.5zM156 1036q0 -108 61.5 -167.5t177.5 -59.5t178 59.5t62 167.5v146q0 108 -62 168.5t-178 60.5t-177.5 -60.5t-61.5 -168.5v-146zM257.5 8 q-3.5 8 4.5 19l1034 1405q10 15 18 18.5t29 3.5h39q13 0 17 -7.5t-4 -19.5l-1035 -1404q-12 -15 -20 -19t-31 -4h-33q-15 0 -18.5 8zM944 266v152q0 141 82 221t234 80q153 0 235 -80t82 -221v-152q0 -140 -82 -218.5t-235 -78.5q-152 0 -234 78.5t-82 218.5zM1020 270 q0 -108 62 -167.5t178 -59.5t177.5 59.5t61.5 167.5v146q0 108 -61.5 168.5t-177.5 60.5t-178 -60.5t-62 -168.5v-146z" />
<glyph unicode="&#x26;" horiz-adv-x="1337" d="M90 354q0 69 18.5 127.5t47.5 100t75 78.5t90 61.5t103 50.5q-95 91 -150 178.5t-55 192.5q0 138 99 239t257 101q152 0 254.5 -100t102.5 -236q0 -74 -21 -130.5t-67.5 -102.5t-108 -81.5t-155.5 -74.5l-21 -8l424 -408l150 141q16 16 32 0l29 -28q14 -14 0 -31 l-150 -143l263 -256q11 -11 7.5 -18t-20.5 -7h-55q-23 0 -39 16l-215 209q-170 -155 -277 -204.5t-233 -49.5q-161 0 -273 110t-112 273zM180 352q0 -125 87 -211t210 -86q107 0 201 47t246 183l-443 428q-73 -31 -123 -61t-93 -72.5t-64 -99t-21 -128.5zM305 1143 q0 -41 12 -80.5t27.5 -68.5t46.5 -66.5t51 -58.5t60 -60l39 20q47 20 72.5 31.5t63.5 31t58 35.5t45 40t37 49t20.5 58.5t8.5 72.5q0 103 -77 180.5t-194 77.5q-120 0 -195 -78t-75 -184z" />
<glyph unicode="'" horiz-adv-x="352" d="M139 1012v420q0 13 4.5 17.5t18.5 4.5h39q14 0 18.5 -4.5t3.5 -17.5l-16 -420q0 -12 -5 -16.5t-18 -4.5h-22q-13 0 -18 4.5t-5 16.5z" />
<glyph unicode="(" horiz-adv-x="493" d="M129 203v1048q0 180 70 285.5t215 171.5q19 10 30 -12l17 -33q10 -19 -12 -33q-120 -55 -177 -140.5t-57 -234.5v-1056q0 -149 57 -234.5t177 -140.5q22 -14 12 -33l-17 -33q-11 -22 -30 -12q-145 66 -215 171.5t-70 285.5z" />
<glyph unicode=")" horiz-adv-x="493" d="M31 -209q-7 20 14 33q120 55 177 140.5t57 234.5v1056q0 149 -57 234.5t-177 140.5q-21 13 -14 33l18 33q11 22 31 12q145 -66 215 -171.5t70 -285.5v-1048q0 -180 -70 -285.5t-215 -171.5q-20 -10 -31 12z" />
<glyph unicode="*" horiz-adv-x="792" d="M125 1171l10 31q8 16 25 8l217 -82l-12 234q-3 16 16 16h31q19 0 16 -16l-12 -234l219 82q19 5 24 -10l11 -29q3 -19 -13 -22l-229 -59l150 -185q12 -12 -5 -24l-24 -19q-17 -11 -25 6l-127 197l-131 -197q-8 -17 -22 -6l-27 21q-16 10 -2 24l150 183l-226 61 q-21 3 -14 20z" />
<glyph unicode="+" horiz-adv-x="1183" d="M109 653v33q0 14 5.5 19.5t20.5 5.5h416v415q0 15 5.5 21t18.5 6h33q25 0 25 -27v-415h418q24 0 24 -25v-33q0 -13 -5.5 -18.5t-18.5 -5.5h-418v-416q0 -27 -25 -27h-33q-13 0 -18.5 6t-5.5 21v416h-416q-15 0 -20.5 5t-5.5 19z" />
<glyph unicode="," horiz-adv-x="331" d="M43 -229l78 321q4 19 12 25t25 6h35q35 0 26 -31l-113 -317q-5 -13 -11 -18t-19 -5h-17q-19 0 -16 19z" />
<glyph unicode="-" horiz-adv-x="872" d="M131 526v35q0 25 27 25h559q24 0 24 -25v-35q0 -14 -5.5 -19t-18.5 -5h-559q-15 0 -21 5.5t-6 18.5z" />
<glyph unicode="." horiz-adv-x="337" d="M106 45v12q0 32 12.5 44t45.5 12h10q32 0 43.5 -12t11.5 -44v-12q0 -31 -11.5 -43t-43.5 -12h-10q-33 0 -45.5 11.5t-12.5 43.5z" />
<glyph unicode="/" horiz-adv-x="802" d="M72 -100l569 1532q4 13 11 17.5t22 4.5h43q22 0 16 -22l-569 -1532q-5 -14 -11.5 -18.5t-21.5 -4.5h-43q-23 0 -16 23z" />
<glyph unicode="0" horiz-adv-x="1273" d="M125 436v582q0 216 135 340.5t377 124.5t377 -124.5t135 -340.5v-582q0 -217 -134.5 -341t-377.5 -124t-377.5 124t-134.5 341zM219 436q0 -178 109 -277.5t309 -99.5t309 99.5t109 277.5v582q0 176 -109.5 276.5t-308.5 100.5t-308.5 -100.5t-109.5 -276.5v-582z" />
<glyph unicode="1" horiz-adv-x="911" d="M63 1104q-14 19 11 33l551 307q15 10 37 10h34q25 0 25 -27v-1400q0 -27 -25 -27h-43q-15 0 -20.5 6t-5.5 21v1312l-506 -280q-23 -15 -37 10z" />
<glyph unicode="2" horiz-adv-x="1198" d="M109 27v147q0 57 13.5 106t33 86t55.5 71.5t67.5 57t83.5 48t88 40.5t95 38q173 66 233 98q150 81 193 203q20 58 20 129q0 145 -99.5 244.5t-256.5 99.5q-164 0 -266.5 -68t-165.5 -209q-11 -22 -33 -14l-41 14q-24 10 -16 33q72 167 198 249.5t326 82.5 q100 0 185.5 -34t143.5 -92.5t91 -136.5t33 -165q0 -77 -16 -139t-55 -111.5t-76.5 -85t-108.5 -72t-120.5 -58t-142.5 -57.5q-52 -20 -79 -31t-72.5 -32t-70 -37.5t-56 -43.5t-47.5 -54t-27.5 -64.5t-11.5 -79.5v-102h850q15 0 20.5 -5.5t5.5 -19.5v-36q0 -15 -5.5 -21 t-20.5 -6h-922q-26 0 -26 27z" />
<glyph unicode="3" horiz-adv-x="1212" d="M104 336q-8 25 17 33l39 14q25 8 33 -16q48 -161 143 -234.5t289 -73.5q197 0 292 87t95 249q0 142 -78.5 224.5t-224.5 82.5h-342q-25 0 -25 25v35q0 15 5.5 20.5t19.5 5.5h331q135 0 205 82t70 203q0 157 -88 239.5t-260 82.5q-186 0 -279.5 -70t-140.5 -229 q-8 -23 -33 -15l-39 13q-24 8 -16 34q53 181 170.5 268t339.5 87q215 0 326.5 -105.5t111.5 -298.5q0 -113 -49 -201t-148 -126q119 -36 179.5 -129.5t60.5 -227.5q0 -200 -120 -312t-363 -112q-155 0 -261 44t-165 121.5t-95 199.5z" />
<glyph unicode="4" horiz-adv-x="1228" d="M53 451v26q0 20 8 33l760 948q16 19 37 19h43q15 0 21 -6t6 -23v-938h215q13 0 18.5 -6t5.5 -21v-32q0 -15 -5.5 -21t-18.5 -6h-215v-397q0 -15 -6 -21t-21 -6h-37q-15 0 -20.5 6t-5.5 21v397h-758q-15 0 -21 6t-6 21zM168 510h670v833z" />
<glyph unicode="5" horiz-adv-x="1187" d="M90 289q-8 25 14 33l43 14q24 12 33 -17q45 -130 150 -196t282 -66t282 105.5t105 263.5q0 152 -95.5 249t-272.5 97h-449q-20 0 -26.5 8t-3.5 27l61 602q1 26 12 35.5t37 9.5h758q13 0 18.5 -6t5.5 -21v-36q0 -25 -24 -25h-719l-49 -506h383q115 0 205 -34t145.5 -94 t84 -137.5t28.5 -168.5q0 -93 -33.5 -176t-94 -145.5t-153.5 -99t-205 -36.5q-210 0 -337.5 81t-184.5 239z" />
<glyph unicode="6" horiz-adv-x="1259" d="M123 479v496q0 249 131.5 378.5t384.5 129.5q196 0 317 -77.5t181 -231.5q4 -13 -0.5 -19.5t-18.5 -11.5l-39 -15q-14 -5 -20 -1.5t-12 18.5q-51 124 -150 187t-258 63q-207 0 -314.5 -106.5t-107.5 -313.5v-215q35 15 83.5 30t150.5 31.5t208 16.5q254 0 376 -107 t122 -328q0 -204 -137.5 -318t-380.5 -114q-251 0 -383.5 134.5t-132.5 373.5zM217 479q0 -200 108.5 -310t313.5 -110q202 0 313 89.5t111 254.5q0 176 -99.5 261.5t-310.5 85.5q-243 0 -436 -82v-189z" />
<glyph unicode="7" horiz-adv-x="1044" d="M57 1391v36q0 15 6 21t21 6h909q15 0 21 -6t6 -21v-24q0 -16 -8 -37l-590 -1343q-8 -15 -16 -19t-31 -4h-43q-26 0 -13 27l592 1339h-827q-27 0 -27 25z" />
<glyph unicode="8" horiz-adv-x="1249" d="M104 336q0 79 28 145t67 108t94.5 76.5t96 50.5t85.5 29q-58 20 -102.5 41t-89 53t-73.5 69.5t-47 90.5t-18 117q0 176 127 271.5t351 95.5q237 0 359 -92t122 -269q0 -74 -24 -135.5t-57.5 -100.5t-81.5 -70.5t-85 -47t-78 -27.5q66 -21 114 -40.5t98.5 -52t82 -71.5 t52 -96t20.5 -127q0 -180 -125 -281.5t-397 -101.5q-519 0 -519 365zM199 344q0 -140 101 -215.5t325 -75.5q422 0 422 301q0 48 -12 88t-29.5 68.5t-51 54t-63 42t-80 34t-86 28t-97.5 27.5q-32 9 -48 13q-22 -4 -40.5 -8.5t-60 -19t-74.5 -31t-73.5 -46t-68 -64.5t-46 -86 t-18.5 -110zM242 1114q0 -36 7.5 -68t18.5 -56.5t32 -47.5t39 -38.5t50.5 -32.5t54.5 -27t62.5 -23t64 -20t68.5 -19l31 -8q342 78 342 340q0 140 -99 213.5t-288 73.5q-183 0 -283 -74t-100 -213z" />
<glyph unicode="9" horiz-adv-x="1259" d="M102 1051q0 204 136.5 318t379.5 114q251 0 385 -135t134 -373v-496q0 -249 -132.5 -378.5t-386.5 -129.5q-378 0 -495 310q-4 14 -1 19.5t17 10.5l39 15q24 11 33 -17q51 -124 150 -187t257 -63q207 0 315.5 106.5t108.5 313.5v215q-191 -78 -442 -78q-254 0 -376 107 t-122 328zM197 1051q0 -176 98 -261t309 -85q236 0 438 81v189q0 200 -108.5 310t-315.5 110q-201 0 -311 -89.5t-110 -254.5z" />
<glyph unicode=":" horiz-adv-x="385" d="M131 45v12q0 32 12.5 44t44.5 12h11q31 0 43 -12t12 -44v-12q0 -31 -12 -43t-43 -12h-11q-33 0 -45 11.5t-12 43.5zM131 920v10q0 32 12.5 44.5t44.5 12.5h11q31 0 43 -12.5t12 -44.5v-10q0 -32 -12 -45t-43 -13h-11q-32 0 -44.5 12t-12.5 46z" />
<glyph unicode=";" horiz-adv-x="460" d="M117 -229l78 321q4 19 11.5 25t24.5 6h35q39 0 27 -31l-113 -317q-9 -23 -28 -23h-19q-19 0 -16 19zM190 920v10q0 32 13 44.5t45 12.5h10q31 0 43 -12.5t12 -44.5v-10q0 -32 -12 -45t-43 -13h-10q-33 0 -45.5 12.5t-12.5 45.5z" />
<glyph unicode="&#x3c;" horiz-adv-x="1032" d="M80 655v25q0 24 22 35l766 413q31 16 31 -18v-35q0 -20 -5 -27.5t-22 -17.5l-675 -358v-4l675 -361q11 -7 13 -8t7 -6.5t6 -11.5t1 -17v-39q0 -34 -31 -18l-766 414q-13 8 -17.5 14.5t-4.5 19.5z" />
<glyph unicode="=" horiz-adv-x="1232" d="M133 451v32q0 15 6 21t21 6h915q25 0 25 -27v-32q0 -27 -25 -27h-915q-15 0 -21 6t-6 21zM133 854v35q0 15 6 20.5t21 5.5h915q14 0 19.5 -5.5t5.5 -20.5v-35q0 -25 -25 -25h-915q-27 0 -27 25z" />
<glyph unicode="&#x3e;" horiz-adv-x="1032" d="M133 225v35q0 21 4.5 28.5t22.5 16.5l676 359v4l-676 360q-18 10 -22.5 16.5t-4.5 28.5v37q0 34 29 20l766 -415q14 -6 19 -13t5 -22v-25q0 -21 -24 -34l-766 -414q-29 -17 -29 18z" />
<glyph unicode="?" horiz-adv-x="1132" d="M68 1178q132 338 512 338q221 0 351 -120.5t130 -301.5q0 -50 -6.5 -95t-21.5 -82.5t-29 -67t-40.5 -59t-44 -48t-51.5 -43.5t-50 -35.5t-52 -34.5q-39 -27 -62.5 -45t-55 -49t-49 -60.5t-30 -71.5t-12.5 -90q0 -26 -25 -26h-32q-14 0 -19.5 5.5t-5.5 20.5q0 62 14.5 114 t33.5 87t55 71t62.5 56t72.5 51q42 28 63.5 44t57 45.5t54.5 57t40 66t30 85.5t9 102q0 147 -104 243.5t-285 96.5q-310 0 -424 -283q-10 -24 -33 -16l-39 12q-22 8 -14 33zM455 45v12q0 32 12.5 44t44.5 12h10q31 0 43.5 -12t12.5 -44v-12q0 -31 -12.5 -43t-43.5 -12h-10 q-33 0 -45 11.5t-12 43.5z" />
<glyph unicode="@" horiz-adv-x="1843" d="M102 526v142q0 379 215.5 597t597.5 218q261 0 447 -103t278.5 -285.5t92.5 -426.5v-142q0 -105 -30 -189t-81 -135.5t-114 -78.5t-134 -27q-104 0 -127 88q-161 -82 -383 -82q-176 0 -263 86t-87 246v324q0 160 87 248t263 88q207 0 359 -62q41 -18 55 -37t14 -61v-688 q0 -80 84 -80q117 0 200 90.5t83 269.5v144q0 226 -84 392.5t-253 259.5t-407 93q-346 0 -541.5 -198.5t-195.5 -546.5v-144q0 -351 193.5 -540t543.5 -189q63 0 128.5 5.5t118 14t92.5 16.5t70 15t32 7q14 3 14 -9v-39q0 -11 -3 -15t-13 -7q-192 -55 -439 -55 q-386 0 -599.5 207.5t-213.5 588.5zM594 436q0 -262 278 -262q89 0 169.5 17.5t114.5 32.5t58 30v659q0 26 -8.5 37.5t-34.5 22.5q-112 47 -299 47q-278 0 -278 -264v-320z" />
<glyph unicode="A" horiz-adv-x="1294" d="M25 25l567 1415q11 24 35 24h41q26 0 34 -24l568 -1415q3 -6 3 -11q0 -14 -24 -14h-37q-23 0 -32.5 5t-12.5 18l-182 452h-680l-180 -452q-5 -14 -14.5 -18.5t-32.5 -4.5h-35q-21 0 -21 13q0 5 3 12zM334 555h624l-290 727q-8 24 -21 88h-6q0 -41 -16 -88z" />
<glyph unicode="B" horiz-adv-x="1310" d="M168 27v1400q0 15 6 21t21 6h581q184 0 284.5 -94.5t100.5 -272.5q0 -260 -213 -335v-4q127 -28 194.5 -119.5t67.5 -241.5q0 -185 -108.5 -286t-298.5 -101h-608q-15 0 -21 6t-6 21zM262 88h537q151 0 232 78.5t81 228.5q0 147 -81 225t-232 78h-537v-610zM262 784h504 q144 0 221.5 74t77.5 219q0 142 -77 215.5t-222 73.5h-504v-582z" />
<glyph unicode="C" horiz-adv-x="1298" d="M125 477v502q0 237 141.5 370.5t409.5 133.5q231 0 357.5 -88t180.5 -269q4 -14 0 -21t-18 -13l-37 -13q-15 -3 -23 0.5t-12 16.5q-47 156 -150 227.5t-298 71.5q-224 0 -340.5 -108.5t-116.5 -305.5v-506q0 -195 118.5 -305.5t338.5 -110.5q135 0 226 36t142.5 102 t83.5 172q11 24 35 16l39 -14q19 -6 19 -22q0 -5 -2 -11q-36 -121 -99 -199.5t-174 -123t-270 -44.5q-264 0 -407.5 134.5t-143.5 371.5z" />
<glyph unicode="D" horiz-adv-x="1323" d="M168 27v1400q0 15 6 21t21 6h417q283 0 438.5 -144t155.5 -397v-372q0 -253 -155.5 -397t-438.5 -144h-417q-15 0 -21 6t-6 21zM262 88h352q238 0 368 119t130 334v372q0 215 -129 334t-369 119h-352v-1278z" />
<glyph unicode="E" horiz-adv-x="1167" d="M168 27v1400q0 15 6 21t21 6h835q15 0 21 -6t6 -21v-36q0 -25 -27 -25h-768v-586h680q25 0 25 -24v-37q0 -27 -25 -27h-680v-604h797q26 0 26 -25v-36q0 -27 -26 -27h-864q-15 0 -21 6t-6 21z" />
<glyph unicode="F" horiz-adv-x="1128" d="M168 27v1400q0 15 6 21t21 6h835q15 0 21 -6t6 -21v-36q0 -25 -27 -25h-768v-606h668q15 0 20.5 -6t5.5 -21v-37q0 -14 -5.5 -19t-20.5 -5h-668v-645q0 -15 -5.5 -21t-18.5 -6h-43q-15 0 -21 6t-6 21z" />
<glyph unicode="G" horiz-adv-x="1333" d="M125 479v500q0 237 141.5 370.5t409.5 133.5q231 0 357.5 -88t180.5 -269q4 -14 0 -21t-18 -13l-37 -13q-26 -9 -35 17q-47 156 -150 227.5t-298 71.5q-225 0 -341 -108.5t-116 -305.5v-502q0 -199 118.5 -309.5t340.5 -110.5q218 0 337.5 108.5t119.5 297.5v178h-439 q-26 0 -26 27v37q0 26 26 26h504q27 0 27 -28v-240q0 -228 -143 -361t-406 -133q-267 0 -410 135t-143 373z" />
<glyph unicode="H" horiz-adv-x="1390" d="M168 27v1400q0 15 6 21t21 6h43q13 0 18.5 -6t5.5 -21v-647h866v647q0 27 25 27h43q15 0 21 -6t6 -21v-1400q0 -15 -6 -21t-21 -6h-43q-25 0 -25 27v665h-866v-665q0 -15 -5.5 -21t-18.5 -6h-43q-15 0 -21 6t-6 21z" />
<glyph unicode="I" horiz-adv-x="430" d="M168 27v1400q0 15 6 21t21 6h43q13 0 18.5 -6t5.5 -21v-1400q0 -15 -5.5 -21t-18.5 -6h-43q-15 0 -21 6t-6 21z" />
<glyph unicode="J" horiz-adv-x="1161" d="M45 373q-2 7 -2 13q0 16 18 22l41 14q25 9 33 -16q32 -172 124 -259.5t261 -87.5q188 0 288.5 101.5t100.5 283.5v986q0 24 25 24h45q25 0 25 -24v-986q0 -221 -126 -348t-358 -127q-396 0 -475 404z" />
<glyph unicode="K" horiz-adv-x="1228" d="M168 27v1400q0 15 6 21t21 6h43q13 0 18.5 -6t5.5 -21v-647h254q37 0 51 -2l484 654q11 14 20.5 18t32.5 4h47q14 0 17 -8t-5 -19l-497 -665q91 -21 152 -75t110 -150l258 -510q4 -7 4 -13q0 -3 -1 -6q-4 -8 -18 -8h-41q-24 0 -33.5 4.5t-17.5 18.5l-239 477 q-53 105 -123 149.5t-195 44.5h-260v-667q0 -15 -5.5 -21t-18.5 -6h-43q-15 0 -21 6t-6 21z" />
<glyph unicode="L" horiz-adv-x="1060" d="M168 27v1400q0 15 6 21t21 6h43q13 0 18.5 -6t5.5 -21v-1339h746q24 0 24 -25v-36q0 -15 -5.5 -21t-18.5 -6h-813q-15 0 -21 6t-6 21z" />
<glyph unicode="M" horiz-adv-x="1628" d="M168 27v1400q0 15 6 21t21 6h32q16 0 23.5 -4.5t15.5 -17.5l549 -969l545 967q13 24 37 24h39q13 0 18.5 -6t5.5 -21v-1400q0 -15 -5.5 -21t-18.5 -6h-41q-25 0 -25 27v940q0 173 14 342h-4q-78 -162 -153 -293l-365 -647q-10 -21 -33 -21h-26q-26 0 -35 21l-371 655 q-70 121 -147 285h-4q12 -182 12 -342v-940q0 -15 -6 -21t-21 -6h-36q-15 0 -21 6t-6 21z" />
<glyph unicode="N" horiz-adv-x="1409" d="M168 27v1400q0 15 6 21t21 6h41q19 0 28 -14l707 -1010q41 -59 104 -160.5t84 -132.5h4q0 39 -7 165.5t-7 203.5v924q0 13 6 18.5t21 5.5h41q13 0 18.5 -6t5.5 -21v-1400q0 -15 -5.5 -21t-18.5 -6h-43q-20 0 -29 16l-727 1037q-36 51 -91.5 145t-74.5 121h-4 q0 -33 6 -150t6 -188v-954q0 -15 -5.5 -21t-18.5 -6h-41q-15 0 -21 6t-6 21z" />
<glyph unicode="O" horiz-adv-x="1351" d="M125 477v500q0 238 143 372t410 134q264 0 406.5 -134t142.5 -372v-500q0 -238 -142.5 -372t-406.5 -134q-267 0 -410 134t-143 372zM219 477q0 -198 118.5 -308t340.5 -110q219 0 337 110t118 308v500q0 198 -118 308t-337 110q-222 0 -340.5 -110t-118.5 -308v-500z " />
<glyph unicode="P" horiz-adv-x="1265" d="M168 27v1400q0 15 6 21t21 6h550q209 0 331 -118.5t122 -327.5q0 -206 -121.5 -324.5t-331.5 -118.5h-483v-538q0 -15 -5.5 -21t-18.5 -6h-43q-15 0 -21 6t-6 21zM262 653h475q168 0 265.5 94.5t97.5 260.5q0 168 -97.5 263t-265.5 95h-475v-713z" />
<glyph unicode="Q" horiz-adv-x="1372" d="M125 477v500q0 238 143 372t410 134q264 0 406.5 -134t142.5 -372v-500q0 -226 -127 -356l151 -178q8 -9 8 -17q0 -10 -12 -20l-28 -23q-9 -9 -18 -9q-10 0 -19 11l-154 183q-132 -97 -350 -97q-267 0 -410 134t-143 372zM219 477q0 -198 118.5 -308t340.5 -110 q219 0 337 110t118 308v500q0 198 -118 308t-337 110q-222 0 -340.5 -110t-118.5 -308v-500z" />
<glyph unicode="R" horiz-adv-x="1310" d="M168 27v1400q0 15 6 21t21 6h587q195 0 305.5 -108t110.5 -302q0 -175 -96 -278t-264 -117q57 -24 95 -63t73 -105l229 -454q6 -8 6 -14q1 -3 -1 -5q-4 -8 -19 -8h-39q-25 0 -35.5 4.5t-16.5 18.5l-212 421q-53 105 -123 150t-195 45h-338v-612q0 -15 -5.5 -21t-18.5 -6 h-43q-15 0 -21 6t-6 21zM262 727h510q155 0 241.5 82.5t86.5 234.5q0 154 -85.5 238t-242.5 84h-510v-639z" />
<glyph unicode="S" horiz-adv-x="1273" d="M84 353q2 8 18 14l39 14q13 5 20.5 2t14.5 -18q66 -156 179 -230t284 -74q446 0 446 324q0 51 -13.5 91.5t-33 68.5t-56 50.5t-67.5 35.5t-83.5 24t-87.5 16.5t-95 12.5q-52 6 -86.5 11t-84 14.5t-82.5 19.5t-74.5 26.5t-68.5 36t-55.5 48t-45 62t-27 77.5t-10.5 96 q0 189 136.5 298.5t377.5 109.5q203 0 329 -76.5t207 -241.5q14 -25 -12 -35l-41 -18q-12 -5 -19 -3t-14 15q-70 139 -175.5 204t-274.5 65q-198 0 -308 -82t-110 -230q0 -51 14 -92t36 -70t59 -52t72 -37t87 -25t92.5 -17t98.5 -12q50 -6 84 -10.5t80.5 -13.5t79 -19 t71.5 -26.5t65 -36t52.5 -47.5t42.5 -61.5t25.5 -77.5t9.5 -95q0 -201 -138 -309.5t-403 -108.5q-213 0 -345 87t-206 272q-4 11 -4 18q-1 3 0 5z" />
<glyph unicode="T" horiz-adv-x="1089" d="M27 1391v36q0 15 5.5 21t20.5 6h983q15 0 21 -6t6 -21v-36q0 -25 -27 -25h-444v-1339q0 -27 -25 -27h-43q-15 0 -20.5 6t-5.5 21v1339h-445q-15 0 -20.5 5.5t-5.5 19.5z" />
<glyph unicode="U" horiz-adv-x="1390" d="M156 492v935q0 15 5.5 21t20.5 6h43q25 0 25 -27v-935q0 -204 113 -319.5t333 -115.5q219 0 332 116t113 319v935q0 15 5.5 21t18.5 6h45q25 0 25 -27v-935q0 -244 -137.5 -383.5t-401.5 -139.5q-265 0 -402.5 139.5t-137.5 383.5z" />
<glyph unicode="V" horiz-adv-x="1255" d="M27 1430q-3 7 -3 11q0 13 19 13h39q23 0 31.5 -4t13.5 -18l455 -1178q9 -27 24.5 -75.5t20.5 -61.5h6q5 13 19.5 61.5t23.5 75.5l452 1178q4 13 14 17.5t32 4.5h38q20 0 20 -13q0 -5 -3 -11l-547 -1405q-8 -25 -35 -25h-39q-26 0 -35 23z" />
<glyph unicode="W" horiz-adv-x="1781" d="M49 1430q-1 5 -1 9q0 15 18 15h51q18 0 25 -4.5t10 -17.5l292 -1102q7 -30 21 -100.5t20 -94.5h4q40 171 46 193l305 1071q5 24 34 24h41q30 0 35 -24l305 -1075q15 -56 43 -189h7q17 95 36 189l295 1108q3 13 10 17.5t25 4.5h45q19 0 19 -13q0 -5 -2 -11l-379 -1405 q-8 -25 -35 -25h-41q-30 0 -35 23l-305 1079q-23 86 -43 186h-6q-21 -108 -45 -186l-305 -1077q-5 -25 -35 -25h-39q-30 0 -35 23z" />
<glyph unicode="X" horiz-adv-x="1243" d="M35 31l526 706l-512 693q-7 9 -3 16.5t17 7.5h54q21 0 29.5 -4t17.5 -18l459 -619l456 619q9 14 17.5 18t29.5 4h54q12 0 16 -7.5t-4 -16.5l-510 -691l524 -708q7 -10 7 -18q0 -13 -17 -13h-53q-23 0 -31.5 4t-17.5 19l-476 643l-471 -643q-11 -15 -19 -19t-30 -4h-51 q-19 0 -19 12q0 7 7 19z" />
<glyph unicode="Y" horiz-adv-x="1267" d="M30 1446q4 8 17 8h55q23 0 32 -4t16 -18l485 -736l485 736q9 15 17.5 18.5t31.5 3.5h52q13 0 17 -8q1 -3 1 -6q0 -6 -4 -13l-555 -829v-571q0 -27 -25 -27h-43q-15 0 -20.5 6t-5.5 21v573l-553 827q-4 7 -4 13q0 3 1 6z" />
<glyph unicode="Z" horiz-adv-x="1136" d="M66 27v34q0 20 10 35l860 1270h-836q-15 0 -20.5 5.5t-5.5 19.5v36q0 15 5.5 21t20.5 6h928q15 0 21 -6t6 -21v-32q0 -19 -11 -33l-862 -1272h871q15 0 20.5 -6t5.5 -21v-36q0 -15 -5.5 -21t-20.5 -6h-963q-13 0 -18.5 6t-5.5 21z" />
<glyph unicode="[" horiz-adv-x="526" d="M143 -274v2003q0 15 4.5 19.5t18.5 4.5h309q15 0 20 -4.5t5 -17.5v-35q0 -14 -5 -18.5t-20 -4.5h-246v-1890h246q15 0 20 -5t5 -20v-34q0 -14 -5 -18.5t-20 -4.5h-309q-14 0 -18.5 5t-4.5 20z" />
<glyph unicode="\" horiz-adv-x="802" d="M70 1432q-6 22 16 22h45q15 0 22 -4.5t11 -17.5l569 -1532q7 -23 -16 -23h-45q-15 0 -21.5 4.5t-11.5 18.5z" />
<glyph unicode="]" horiz-adv-x="526" d="M27 -242q0 15 4.5 20t19.5 5h246v1890h-246q-15 0 -19.5 4.5t-4.5 18.5v35q0 14 4.5 18t19.5 4h307q15 0 20 -4.5t5 -19.5v-2003q0 -15 -5 -20t-20 -5h-307q-15 0 -19.5 4.5t-4.5 18.5v34z" />
<glyph unicode="^" horiz-adv-x="1216" d="M117 1096l442 542q15 21 33 21h24q12 0 18 -4.5t15 -16.5l451 -542q22 -31 -15 -31h-41q-21 0 -28.5 4t-18.5 18l-391 478h-6l-383 -478q-12 -15 -19.5 -18.5t-29.5 -3.5h-39q-37 0 -12 31z" />
<glyph unicode="_" horiz-adv-x="1044" d="M59 -27q0 15 6 21t21 6h875q13 0 18.5 -6t5.5 -21v-32q0 -15 -5.5 -21t-18.5 -6h-875q-15 0 -21 6t-6 21v32z" />
<glyph unicode="`" horiz-adv-x="526" d="M55 1456l21 23q15 17 45 2l346 -219q18 -10 4 -27l-14 -16q-11 -13 -33 -5l-365 211q-21 8 -4 31z" />
<glyph unicode="a" horiz-adv-x="1042" d="M82 283q0 170 102 239.5t342 69.5q49 0 102.5 -3t86 -6.5t71.5 -8.5t43 -5v113q0 56 -7.5 100t-28 86t-54.5 70t-90.5 44.5t-132.5 16.5q-230 0 -321 -174q-13 -18 -33 -10l-33 12q-25 12 -12 35q114 217 403 217q116 0 197 -31.5t123.5 -89.5t60 -125t17.5 -153v-539 q0 -52 -15 -74.5t-59 -41.5q-124 -54 -326 -54q-130 0 -216.5 20t-134 61.5t-66.5 96t-19 134.5zM172 285q0 -61 14 -102.5t50.5 -74t104.5 -48t171 -15.5q167 0 270 41q30 12 38.5 26t8.5 50v334q-2 0 -44.5 5t-75.5 8t-88 6t-103 3q-191 0 -268.5 -53t-77.5 -180z" />
<glyph unicode="b" d="M139 143v1348q0 25 25 25h41q22 0 22 -25v-490q2 1 18.5 7t23.5 9t27 9.5t32.5 10.5t35 10.5t40 10t42 8t46 7t47.5 4.5t51 2q395 0 395 -395v-299q0 -414 -432 -414q-191 0 -334 60q-50 20 -65 41t-15 71zM227 168q0 -32 8 -43.5t41 -24.5q116 -49 273 -49 q177 0 262.5 83.5t85.5 250.5v297q0 315 -315 315q-187 0 -355 -79v-750z" />
<glyph unicode="c" horiz-adv-x="1050" d="M109 369v313q0 188 110 292.5t326 104.5q182 0 282 -71.5t140 -208.5q8 -25 -15 -35l-34 -12q-24 -8 -33 16q-38 121 -116.5 176t-227.5 55q-169 0 -257.5 -83t-88.5 -230v-319q0 -148 89.5 -232t256.5 -84q145 0 229 59.5t119 184.5q8 24 33 16l36 -12q18 -8 18 -21 q0 -5 -3 -12q-45 -148 -150 -221.5t-282 -73.5q-212 0 -322 104.5t-110 293.5z" />
<glyph unicode="d" d="M111 379v299q0 193 97.5 297t295.5 104q176 0 362 -73v485q0 25 25 25h39q24 0 24 -25v-1348q0 -50 -15.5 -70.5t-66.5 -41.5q-147 -60 -337 -60q-424 0 -424 408zM197 381q0 -330 344 -330q151 0 276 47q33 15 41 26t8 44v752q-157 77 -350 77q-319 0 -319 -321v-295z " />
<glyph unicode="e" horiz-adv-x="1079" d="M104 375v276q0 201 114 314.5t329 113.5q217 0 329.5 -114.5t112.5 -309.5v-104q0 -45 -47 -45h-749v-139q0 -150 87 -235t255 -85q137 0 222.5 52t139.5 149q14 22 37 10l29 -16q24 -12 8 -37q-127 -234 -436 -234q-214 0 -322.5 107.5t-108.5 296.5zM193 578h708v81 q0 161 -89.5 251.5t-264.5 90.5t-264.5 -90.5t-89.5 -251.5v-81z" />
<glyph unicode="f" horiz-adv-x="704" d="M12 991v35q0 23 25 23h211v67q0 150 39.5 236t125 124.5t232.5 39.5h14q25 0 25 -25v-35q0 -13 -5.5 -17.5t-19.5 -4.5q-188 0 -255.5 -65.5t-67.5 -252.5v-67h328q24 0 24 -23v-35q0 -22 -24 -22h-328v-944q0 -25 -25 -25h-39q-24 0 -24 25v944h-211q-25 0 -25 22z" />
<glyph unicode="g" d="M109 379v287q0 413 430 413q194 0 335 -59q50 -22 65 -43t15 -70v-983q0 -442 -424 -442q-153 0 -247 61t-150 170q-15 28 10 39l29 15q22 12 37 -11q47 -94 121 -144t198 -50q338 0 338 358v139q-168 -73 -364 -73q-199 0 -296 102t-97 291zM197 381q0 -315 315 -315 q170 0 354 75v742q0 31 -8.5 42.5t-42.5 24.5q-121 47 -270 47q-177 0 -262.5 -83t-85.5 -250v-283z" />
<glyph unicode="h" horiz-adv-x="1124" d="M145 25v1466q0 25 25 25h39q24 0 24 -25v-483q153 71 361 71q201 0 298 -102t97 -293v-659q0 -25 -22 -25h-41q-25 0 -25 25v655q0 157 -77 237t-240 80q-202 0 -351 -73v-899q0 -25 -24 -25h-39q-25 0 -25 25z" />
<glyph unicode="i" horiz-adv-x="376" d="M131 1352v12q0 29 11 40t42 11h11q29 0 40 -11t11 -40v-12q0 -30 -11 -42t-40 -12h-11q-31 0 -42 11.5t-11 42.5zM145 25v1001q0 23 23 23h41q24 0 24 -23v-1001q0 -25 -24 -25h-41q-23 0 -23 25z" />
<glyph unicode="j" horiz-adv-x="378" d="M-195 -412q0 13 5.5 18t19.5 5q176 0 245.5 91.5t69.5 279.5v1044q0 23 25 23h39q24 0 24 -23v-1044q0 -227 -92 -340t-311 -113q-25 0 -25 25v34zM131 1352v12q0 29 11.5 40t41.5 11h11q30 0 41.5 -11t11.5 -40v-12q0 -29 -12 -41.5t-41 -12.5h-11q-30 0 -41.5 12 t-11.5 42z" />
<glyph unicode="k" horiz-adv-x="1021" d="M145 25v1466q0 25 25 25h39q24 0 24 -25v-911h248h21l356 450q9 13 17 16t30 3h35q40 0 16 -27l-364 -457q68 -13 112.5 -52.5t79.5 -111.5l189 -374q4 -8 4 -14q0 -13 -19 -13h-40q-18 0 -25.5 4t-13.5 16l-170 345q-35 71 -84.5 103t-132.5 32h-259v-475q0 -25 -24 -25 h-39q-25 0 -25 25z" />
<glyph unicode="l" horiz-adv-x="393" d="M154 25v1466q0 14 4.5 19.5t17.5 5.5h41q13 0 18 -5.5t5 -19.5v-1466q0 -14 -5 -19.5t-18 -5.5h-41q-13 0 -17.5 5.5t-4.5 19.5z" />
<glyph unicode="m" horiz-adv-x="1665" d="M139 25v874q0 47 16.5 71t61.5 46q138 63 303 63q181 0 273 -98q178 98 374 98q185 0 273 -96t88 -285v-673q0 -25 -25 -25h-39q-24 0 -24 25v669q0 156 -68.5 229.5t-214.5 73.5q-162 0 -317 -84q49 -82 49 -215v-673q0 -25 -25 -25h-39q-24 0 -24 25v669q0 155 -72 229 t-219 74q-136 0 -240 -49q-27 -12 -35 -28t-8 -43v-852q0 -25 -22 -25h-41q-25 0 -25 25z" />
<glyph unicode="n" horiz-adv-x="1120" d="M139 25v874q0 47 16 70t62 43q169 67 371 67q201 0 299 -102t98 -293v-659q0 -25 -24 -25h-41q-23 0 -23 25v655q0 158 -78 237.5t-241 79.5q-168 0 -308 -53q-27 -13 -35 -27t-8 -40v-852q0 -25 -22 -25h-41q-25 0 -25 25z" />
<glyph unicode="o" horiz-adv-x="1099" d="M111 330v389q0 166 119 263t319 97q203 0 321.5 -96.5t118.5 -263.5v-389q0 -167 -118.5 -263t-321.5 -96q-201 0 -319.5 96.5t-118.5 262.5zM199 330q0 -128 96 -203.5t254 -75.5q160 0 256 75.5t96 203.5v391q0 128 -95.5 203t-256.5 75q-158 0 -254 -75t-96 -203v-391 z" />
<glyph unicode="p" d="M139 -426v1333q0 49 16 71t66 42q145 59 342 59q422 0 422 -409v-301q0 -192 -99 -295t-304 -103q-175 0 -355 88v-485q0 -25 -22 -25h-41q-25 0 -25 25zM227 141q176 -90 351 -90q319 0 319 320v297q0 329 -344 329q-153 0 -274 -47q-34 -14 -43 -25.5t-9 -43.5v-740z " />
<glyph unicode="q" d="M111 365v301q0 413 430 413q192 0 333 -59q50 -22 65 -43t15 -70v-1333q0 -25 -24 -25h-39q-25 0 -25 25v485q-187 -88 -362 -88q-200 0 -296.5 102t-96.5 292zM197 367q0 -316 315 -316q178 0 354 90v740q0 32 -8.5 43.5t-42.5 25.5q-121 47 -270 47q-177 0 -262.5 -83 t-85.5 -250v-297z" />
<glyph unicode="r" horiz-adv-x="690" d="M139 25v876q0 47 16 70t62 43q153 63 365 65h63q23 0 23 -24v-33q0 -25 -23 -25h-65q-177 0 -310 -53q-27 -13 -35 -27t-8 -40v-852q0 -25 -22 -25h-41q-25 0 -25 25z" />
<glyph unicode="s" horiz-adv-x="1007" d="M80 229q-3 7 -3 12q0 14 17 21l35 10q12 5 18.5 2t12.5 -16q40 -111 128 -160t226 -49q324 0 324 217q0 50 -17 87t-42.5 58.5t-71 36.5t-86.5 22t-105 13q-83 8 -126.5 14t-107.5 25.5t-96 49t-57 83.5t-25 129q0 140 100 217.5t292 77.5q169 0 266.5 -58t142.5 -167 q12 -23 -12 -35l-31 -12q-14 -5 -20.5 -3t-14.5 13q-36 90 -111 136t-218 46q-152 0 -230 -54t-78 -159q0 -56 20.5 -96t41 -61t79.5 -36.5t86.5 -19t111.5 -11.5q4 -1 6 -1q51 -5 89 -10.5t80.5 -16t73.5 -24.5t60 -36t46.5 -50t28.5 -67t11 -87q0 -142 -102 -220.5 t-306 -78.5q-167 0 -275 61.5t-161 196.5z" />
<glyph unicode="t" horiz-adv-x="704" d="M8 991v35q0 23 23 23h221v223q0 22 24 22h39q25 0 25 -22v-223h326q24 0 24 -23v-35q0 -22 -24 -22h-326v-594q0 -101 15 -162t54.5 -97t97.5 -48.5t155 -12.5q14 0 19 -5.5t5 -18.5v-35q0 -25 -24 -25h-12q-108 0 -180 17q-76 18 -126 64.5t-71 123.5t-21 197v596h-221 q-23 0 -23 22z" />
<glyph unicode="u" horiz-adv-x="1120" d="M135 367v659q0 23 25 23h39q24 0 24 -23v-655q0 -159 77.5 -239.5t240.5 -80.5q174 0 307 53q27 12 35 27.5t8 42.5v852q0 23 24 23h41q23 0 23 -23v-876q0 -46 -15.5 -69.5t-60.5 -43.5q-166 -66 -371 -66q-202 0 -299.5 102.5t-97.5 293.5z" />
<glyph unicode="v" horiz-adv-x="1019" d="M34 1043q4 6 21 6h31q21 0 28 -4.5t13 -20.5l326 -766q12 -31 31.5 -86.5t25.5 -71.5h4q6 13 23.5 68t31.5 88l324 770q5 14 12.5 18.5t28.5 4.5h31q18 0 22 -5q2 -2 2 -6q0 -6 -4 -16l-428 -1006q-6 -14 -13 -19t-22 -5h-24q-24 0 -35 24l-426 1006q-4 10 -4 15q0 4 1 6 z" />
<glyph unicode="w" horiz-adv-x="1492" d="M50 1043q4 6 20 6h30q21 0 29.5 -5.5t11.5 -19.5l224 -723q6 -23 23.5 -95t25.5 -97h4q7 22 25.5 92t27.5 102l227 690q5 16 11.5 20.5t27.5 4.5h21q19 0 25.5 -4.5t11.5 -18.5l225 -684q14 -40 32 -111t25 -91h4q6 20 14.5 51.5t19.5 76t18 72.5l221 717q4 15 12 19 t29 4h28q17 0 21 -6q1 -2 1 -6q0 -6 -3 -15l-316 -1008q-9 -24 -32 -24h-31q-24 0 -33 24l-242 740q-10 35 -23 88.5t-17 66.5h-7q0 -1 -15.5 -59.5t-27.5 -95.5l-237 -740q-6 -15 -12.5 -19.5t-20.5 -4.5h-31q-23 0 -30 24l-316 1008q-3 9 -3 15q1 4 2 6z" />
<glyph unicode="x" horiz-adv-x="976" d="M39 25l395 516l-377 483q-14 25 19 25h41q19 0 26 -3.5t15 -15.5l331 -428l330 428q9 12 16 15.5t25 3.5h41q33 0 14 -25l-370 -485l395 -514q5 -8 5 -14q0 -11 -21 -11h-43q-18 0 -24.5 3.5t-16.5 16.5l-353 457l-350 -457q-7 -13 -15 -16.5t-26 -3.5h-41q-21 0 -21 11 q0 6 5 14z" />
<glyph unicode="y" horiz-adv-x="1124" d="M135 381v645q0 23 25 23h39q24 0 24 -23v-641q0 -159 77.5 -239t240.5 -80q176 0 350 69v891q0 23 24 23h41q23 0 23 -23v-1102q0 -442 -426 -442q-281 0 -399 231q-18 27 10 39l26 15q24 12 39 -11q46 -94 121.5 -144t200.5 -50q340 0 340 358v133q-179 -67 -359 -67 q-202 0 -299.5 102t-97.5 293z" />
<glyph unicode="z" horiz-adv-x="915" d="M63 25v30q0 16 11 29l659 885h-639q-22 0 -22 24v33q0 23 22 23h727q23 0 23 -23v-33q0 -17 -10 -30l-660 -883h657q23 0 23 -25v-30q0 -25 -23 -25h-745q-23 0 -23 25z" />
<glyph unicode="{" horiz-adv-x="626" d="M8 705v40q0 25 21 25h22q101 0 144 52.5t43 156.5v516q0 135 57 196.5t192 61.5h93q13 0 17.5 -5t4.5 -19v-33q0 -14 -4.5 -19.5t-17.5 -5.5h-91q-89 0 -127 -43.5t-38 -136.5v-522q0 -188 -136 -244q136 -47 136 -244v-520q0 -93 38 -136.5t127 -43.5h91q13 0 17.5 -5.5 t4.5 -19.5v-32q0 -14 -4.5 -19.5t-17.5 -5.5h-91q-137 0 -194 61.5t-57 196.5v514q0 105 -43 157t-144 52h-22q-21 0 -21 25z" />
<glyph unicode="|" horiz-adv-x="370" d="M143 -276v2005q0 24 23 24h37q13 0 18.5 -5.5t5.5 -18.5v-2005q0 -25 -24 -25h-37q-23 0 -23 25z" />
<glyph unicode="}" horiz-adv-x="626" d="M23 -244q0 25 24 25h88q90 0 129 43.5t39 136.5v520q0 198 135 244q-135 54 -135 244v522q0 93 -39 136.5t-129 43.5h-88q-24 0 -24 25v33q0 13 5.5 18.5t18.5 5.5h90q136 0 194 -62t58 -196v-516q0 -104 43 -156.5t143 -52.5h23q20 0 20 -25v-40q0 -25 -20 -25h-23 q-101 0 -143.5 -52t-42.5 -157v-514q0 -135 -57.5 -196.5t-194.5 -61.5h-90q-24 0 -24 25v32z" />
<glyph unicode="~" horiz-adv-x="1150" d="M145 606q-21 19 0 37q110 102 238 102q68 0 134 -23t127.5 -46t119.5 -23q99 0 188 82q10 9 17.5 8.5t17.5 -10.5l25 -22q20 -17 0 -37q-116 -101 -240 -101q-55 0 -109 14t-90.5 31.5t-85.5 31.5t-96 14q-56 0 -98.5 -20t-89.5 -62q-11 -9 -17.5 -8t-17.5 10z" />
<glyph unicode="&#xa2;" horiz-adv-x="1091" d="M117 369v313q0 175 99.5 279t289.5 114v150q0 13 5 18.5t19 5.5h41q25 0 25 -24v-150q164 -7 253 -76t128 -200q8 -26 -16 -35l-33 -12q-23 -8 -35 16q-36 121 -114.5 176t-227.5 55q-170 0 -258 -82.5t-88 -230.5v-319q0 -148 89.5 -232t256.5 -84q145 0 229 59.5 t119 184.5q8 24 33 16l37 -12q24 -10 14 -33q-42 -139 -136 -211.5t-251 -81.5v-120q0 -25 -25 -25h-41q-24 0 -24 25v120q-188 9 -288.5 114t-100.5 282z" />
<glyph unicode="&#xa3;" horiz-adv-x="1288" d="M78 27v36q0 23 16 23h45q56 3 93.5 38.5t52 81.5t14.5 99v346h-172q-15 0 -21 6t-6 21v31q0 15 6 20.5t21 5.5h172v375q0 80 25 146t75 117.5t133 80.5t191 29q174 0 283.5 -74t167.5 -244q10 -23 -17 -32l-39 -15q-14 -5 -20.5 -1t-12.5 18q-54 145 -138 202.5 t-222 57.5q-166 0 -247 -79t-81 -208v-373h568q14 0 19 -5.5t5 -20.5v-31q0 -15 -5.5 -21t-18.5 -6h-568v-344q0 -149 -102 -221v-4q198 6 237 6h617q25 0 25 -25v-36q0 -27 -25 -27h-1047q-13 0 -18.5 6t-5.5 21z" />
<glyph unicode="&#xa5;" horiz-adv-x="1288" d="M63.5 1446q3.5 8 16.5 8h49q23 0 31.5 -3.5t15.5 -18.5l471 -707l469 707q9 15 17.5 18.5t31.5 3.5h45q14 0 18 -8t-3 -19l-496 -733h299q25 0 25 -24v-25q0 -22 -25 -22h-336v-222h336q25 0 25 -24v-25q0 -22 -25 -22h-336v-303q0 -15 -5.5 -21t-20.5 -6h-43 q-25 0 -25 27v303h-340q-25 0 -25 22v25q0 24 25 24h340v222h-340q-25 0 -25 22v25q0 24 25 24h303l-495 733q-6 11 -2.5 19z" />
<glyph unicode="&#xa8;" horiz-adv-x="899" d="M195 1323v14q0 27 9.5 37t35.5 10h14q27 0 36 -10t9 -37v-14q0 -27 -9 -36t-36 -9h-14q-26 0 -35.5 9.5t-9.5 35.5zM584 1323v14q0 27 10 37t39 10h10q27 0 38 -10.5t11 -36.5v-14q0 -26 -11 -35.5t-38 -9.5h-10q-29 0 -39 9.5t-10 35.5z" />
<glyph unicode="&#xa9;" horiz-adv-x="1660" d="M96 719q0 205 97 373.5t266.5 265t374.5 96.5q151 0 286.5 -57t233 -154.5t154.5 -234t57 -289.5t-57 -289t-154.5 -234t-233 -155t-286.5 -57q-153 0 -290 57.5t-235 155.5t-155.5 234t-57.5 288zM164 719q0 -186 88 -339.5t241.5 -242t340.5 -88.5q184 0 336 88.5 t239.5 242t87.5 339.5t-87.5 339.5t-239.5 240.5t-336 87q-187 0 -340.5 -87t-241.5 -240t-88 -340zM504 588v243q0 139 82.5 217t238.5 78q135 0 208.5 -52t103.5 -156q8 -19 -11 -27l-24 -8q-12 -3 -17.5 -0.5t-9.5 12.5q-27 91 -82 129.5t-170 38.5q-127 0 -189.5 -59 t-62.5 -170v-246q0 -109 64 -170.5t188 -61.5q109 0 168.5 43t87.5 138q5 17 27 12l22 -8q20 -8 15 -25q-67 -223 -318 -223q-154 0 -237.5 79t-83.5 216z" />
<glyph unicode="&#xab;" horiz-adv-x="1130" d="M84 522q-16 16 0 31l420 424q16 14 33 0l24 -27q16 -16 0 -32l-377 -379l377 -375q14 -17 0 -31l-29 -29q-15 -15 -32 0zM543 522q-13 16 0 31l422 424q15 15 30 0l27 -27q15 -17 0 -32l-377 -379l375 -375q17 -17 0 -31l-27 -29q-17 -15 -32 0z" />
<glyph unicode="&#xad;" horiz-adv-x="872" d="M131 526v35q0 25 27 25h559q24 0 24 -25v-35q0 -14 -5.5 -19t-18.5 -5h-559q-15 0 -21 5.5t-6 18.5z" />
<glyph unicode="&#xae;" horiz-adv-x="999" d="M102 1057q0 163 118 280t282 117q163 0 279 -117t116 -280q0 -164 -116 -281t-279 -117q-164 0 -282 117t-118 281zM152 1057q0 -145 103 -248.5t249 -103.5q143 0 245.5 103.5t102.5 248.5q0 144 -102.5 247t-245.5 103q-146 0 -249 -102.5t-103 -247.5zM338 856v393 q0 11 4 15t16 4h189q65 0 104 -35.5t39 -99.5q0 -52 -26 -84t-72 -41l82 -144q14 -18 -8 -18h-21q-15 0 -22 10l-82 145h-156v-145q0 -10 -12 -10h-23q-12 0 -12 10zM385 1044h160q45 0 70.5 23t25.5 66q0 42 -25.5 66t-70.5 24h-160v-179z" />
<glyph unicode="&#xb4;" horiz-adv-x="526" d="M63 1235q-16 16 3 27l346 219q31 14 47 -2l18 -23q18 -24 -4 -31l-362 -211q-25 -8 -33 5z" />
<glyph unicode="&#xb8;" horiz-adv-x="514" d="M61 -399q0 7 4.5 10t10.5 -2q69 -53 168 -53q75 0 117 35.5t42 99.5q0 100 -139 100q-44 0 -78 -12q-14 -3 -19 4t1 24l74 193h57l-59 -168q24 8 65 8q82 0 129.5 -41.5t46.5 -111.5q-3 -93 -65.5 -142t-163.5 -49q-93 0 -172 45q-19 11 -19 33v27z" />
<glyph unicode="&#xbb;" horiz-adv-x="1130" d="M106 918q-15 15 0 32l27 27q15 15 31 0l422 -424q13 -16 0 -31l-418 -418q-16 -16 -33 0l-26 29q-17 14 0 31l376 375zM567 133q-14 14 0 31l377 375l-377 379q-16 16 0 32l25 27q16 14 33 0l422 -424q13 -16 0 -31l-418 -418q-18 -15 -33 0z" />
<glyph unicode="&#x2c6;" horiz-adv-x="757" d="M44 1207q-3 7 5 14l275 231q2 2 6 5.5t5.5 4.5t4.5 3.5t4 3t3.5 2.5t4 2t4 1t5 1h5.5h7h10q14 0 21.5 -3.5t27.5 -19.5l270 -231q9 -7 6.5 -14t-18.5 -7h-37q-26 0 -43 14l-233 195l-238 -195q-16 -14 -39 -14h-39q-14 0 -17 7z" />
<glyph unicode="&#x2da;" horiz-adv-x="491" d="M49 1309q0 89 54.5 141.5t146.5 52.5q90 0 142 -52t52 -142q0 -89 -52 -141t-142 -52q-92 0 -146.5 52t-54.5 141zM100 1309q0 -66 40.5 -105t109.5 -39q66 0 104.5 39t38.5 105t-38.5 104.5t-104.5 38.5q-69 0 -109.5 -38.5t-40.5 -104.5z" />
<glyph unicode="&#x2dc;" horiz-adv-x="624" d="M-4 1249q0 93 39.5 143t114.5 50q50 0 96 -23t75.5 -51t69.5 -51t80 -23q48 0 72 35.5t24 95.5q0 17 17 17h28q17 0 17 -17q0 -192 -154 -192q-39 0 -75.5 15t-64 36.5t-54.5 43.5t-59 37t-66 15q-46 0 -72.5 -35.5t-26.5 -95.5q0 -16 -16 -16h-29q-16 0 -16 16z" />
<glyph unicode="&#x401;" horiz-adv-x="1167" d="M168 27v1400q0 15 6 21t21 6h835q15 0 21 -6t6 -21v-36q0 -25 -27 -25h-768v-586h680q25 0 25 -24v-37q0 -27 -25 -27h-680v-604h797q26 0 26 -25v-36q0 -27 -26 -27h-864q-15 0 -21 6t-6 21zM367 1665v14q0 26 10.5 36.5t36.5 10.5h12q28 0 37.5 -10t9.5 -37v-14 q0 -27 -9 -36t-38 -9h-12q-27 0 -37 9.5t-10 35.5zM758 1665v14q0 27 10 37t37 10h12q26 0 36.5 -10.5t10.5 -36.5v-14q0 -26 -10 -35.5t-37 -9.5h-12q-28 0 -37.5 9.5t-9.5 35.5z" />
<glyph unicode="&#x410;" horiz-adv-x="1294" d="M25 25l567 1415q11 24 35 24h41q26 0 34 -24l568 -1415q11 -25 -21 -25h-37q-23 0 -32.5 5t-12.5 18l-182 452h-680l-180 -452q-5 -14 -14.5 -18.5t-32.5 -4.5h-35q-29 0 -18 25zM334 555h624l-290 727q-8 24 -21 88h-6q0 -41 -16 -88z" />
<glyph unicode="&#x411;" horiz-adv-x="1280" d="M168 25v1402q0 15 6 21t21 6h882q25 0 25 -27v-36q0 -25 -25 -25h-815v-551h531q195 0 304 -106.5t109 -300.5q0 -193 -109.5 -300.5t-303.5 -107.5h-600q-25 0 -25 25zM262 88h522q154 0 240 84t86 236q0 153 -85.5 236t-240.5 83h-522v-639z" />
<glyph unicode="&#x412;" horiz-adv-x="1310" d="M168 27v1400q0 15 6 21t21 6h581q184 0 284.5 -94.5t100.5 -272.5q0 -260 -213 -335v-4q127 -28 194.5 -119.5t67.5 -241.5q0 -185 -108.5 -286t-298.5 -101h-608q-15 0 -21 6t-6 21zM262 88h537q151 0 232 78.5t81 228.5q0 147 -81 225t-232 78h-537v-610zM262 784h504 q144 0 221.5 74t77.5 219q0 142 -77 215.5t-222 73.5h-504v-582z" />
<glyph unicode="&#x413;" horiz-adv-x="1040" d="M168 27v1400q0 15 6 21t21 6h786q25 0 25 -27v-36q0 -25 -25 -25h-719v-1339q0 -15 -5.5 -21t-18.5 -6h-43q-15 0 -21 6t-6 21z" />
<glyph unicode="&#x414;" horiz-adv-x="1431" d="M27 63q0 14 5.5 19.5t20.5 5.5h84q37 26 62 52t58.5 92t54 158t35.5 253t15 373v411q0 15 6 21t21 6h807q25 0 25 -27v-1339h141q24 0 24 -25v-350q0 -15 -5 -20.5t-19 -5.5h-43q-14 0 -19.5 5.5t-5.5 20.5v287h-1173v-287q0 -26 -27 -26h-41q-15 0 -20.5 5.5t-5.5 20.5 v350zM256 88h870v1278h-673v-350q0 -194 -12.5 -346.5t-30.5 -246t-46 -165t-52 -106t-56 -64.5z" />
<glyph unicode="&#x415;" horiz-adv-x="1167" d="M168 27v1400q0 15 6 21t21 6h835q15 0 21 -6t6 -21v-36q0 -25 -27 -25h-768v-586h680q25 0 25 -24v-37q0 -27 -25 -27h-680v-604h797q26 0 26 -25v-36q0 -27 -26 -27h-864q-15 0 -21 6t-6 21z" />
<glyph unicode="&#x416;" horiz-adv-x="1853" d="M40.5 8q-3.5 8 4.5 19l258 510q43 85 95 136t126 75l-458 679q-15 27 14 27h45q24 0 34 -4t19 -18l438 -656q58 4 91 4h172v647q0 27 26 27h43q15 0 21 -6t6 -21v-647h172q36 0 90 -4l438 656q9 14 19 18t35 4h45q15 0 18.5 -8t-4.5 -19l-459 -679q74 -24 126 -75 t95 -136l258 -510q8 -11 4.5 -19t-18.5 -8h-41q-23 0 -33 4.5t-18 18.5l-238 477q-37 71 -76 111.5t-97.5 61.5t-143.5 21h-172v-667q0 -15 -6 -21t-21 -6h-43q-26 0 -26 27v667h-172q-125 0 -194.5 -44.5t-123.5 -149.5l-237 -477q-8 -14 -18.5 -18.5t-33.5 -4.5h-41 q-15 0 -18.5 8z" />
<glyph unicode="&#x417;" horiz-adv-x="1255" d="M84 336q-8 25 16 33l39 14q27 9 35 -16q32 -106 85 -171t148 -101t238 -36q209 0 311.5 87.5t102.5 248.5q0 141 -78 224t-223 83h-385q-25 0 -25 25v35q0 15 5.5 20.5t19.5 5.5h377q134 0 201 81t67 204q0 156 -96 239t-281 83q-201 0 -304.5 -70.5t-150.5 -228.5 q-8 -24 -34 -15l-39 13q-25 8 -17 34q54 179 183 267t366 88q229 0 348 -105.5t119 -298.5q0 -114 -49 -202.5t-148 -124.5q121 -37 180.5 -130.5t59.5 -228.5q0 -201 -127 -311.5t-383 -110.5q-244 0 -375 91t-186 274z" />
<glyph unicode="&#x418;" horiz-adv-x="1415" d="M168 27v1400q0 15 6 21t21 6h43q13 0 18.5 -6t5.5 -21v-878q0 -249 -14 -420h4q72 120 244 375l653 936q9 14 29 14h43q26 0 26 -27v-1400q0 -27 -26 -27h-43q-15 0 -21 6t-6 21v905q0 174 16 393h-4q-91 -151 -225 -346l-672 -963q-9 -16 -30 -16h-41q-15 0 -21 6t-6 21 z" />
<glyph unicode="&#x419;" horiz-adv-x="1415" d="M168 27v1400q0 15 6 21t21 6h43q13 0 18.5 -6t5.5 -21v-878q0 -249 -14 -420h4q72 120 244 375l653 936q9 14 29 14h43q26 0 26 -27v-1400q0 -27 -26 -27h-43q-15 0 -21 6t-6 21v905q0 174 16 393h-4q-91 -151 -225 -346l-672 -963q-9 -16 -30 -16h-41q-15 0 -21 6t-6 21 zM391 1800q-6 18 10 23l37 12q19 5 27 -10q26 -93 87 -136.5t163 -43.5t162 43.5t88 136.5q7 15 24 10l37 -12q18 -5 12 -23q-35 -114 -114.5 -168.5t-208.5 -54.5q-131 0 -210.5 54.5t-113.5 168.5z" />
<glyph unicode="&#x41a;" horiz-adv-x="1228" d="M168 27v1400q0 15 6 21t21 6h43q13 0 18.5 -6t5.5 -21v-647h254q37 0 51 -2l484 654q11 14 20.5 18t32.5 4h47q14 0 17 -8t-5 -19l-497 -665q91 -21 152 -75t110 -150l258 -510q7 -11 3 -19t-18 -8h-41q-24 0 -33.5 4.5t-17.5 18.5l-239 477q-53 105 -123 149.5 t-195 44.5h-260v-667q0 -15 -5.5 -21t-18.5 -6h-43q-15 0 -21 6t-6 21z" />
<glyph unicode="&#x41b;" horiz-adv-x="1323" d="M10 25q-11 22 13 34q63 32 93 52.5t73 80t62.5 145.5t34.5 240.5t15 374.5v475q0 15 6 21t21 6h802q25 0 25 -27v-1400q0 -27 -25 -27h-43q-15 0 -20.5 6t-5.5 21v1339h-666v-414q0 -236 -18.5 -405t-41 -262t-75 -160.5t-85 -89t-106.5 -58.5q-2 -2 -3 -2 q-24 -12 -35 11z" />
<glyph unicode="&#x41c;" horiz-adv-x="1628" d="M168 27v1400q0 15 6 21t21 6h32q16 0 23.5 -4.5t15.5 -17.5l549 -969l545 967q13 24 37 24h39q13 0 18.5 -6t5.5 -21v-1400q0 -15 -5.5 -21t-18.5 -6h-41q-25 0 -25 27v940q0 173 14 342h-4q-78 -162 -153 -293l-365 -647q-10 -21 -33 -21h-26q-26 0 -35 21l-371 655 q-70 121 -147 285h-4q12 -182 12 -342v-940q0 -15 -6 -21t-21 -6h-36q-15 0 -21 6t-6 21z" />
<glyph unicode="&#x41d;" horiz-adv-x="1390" d="M168 27v1400q0 15 6 21t21 6h43q13 0 18.5 -6t5.5 -21v-647h866v647q0 27 25 27h43q15 0 21 -6t6 -21v-1400q0 -15 -6 -21t-21 -6h-43q-25 0 -25 27v665h-866v-665q0 -15 -5.5 -21t-18.5 -6h-43q-15 0 -21 6t-6 21z" />
<glyph unicode="&#x41e;" horiz-adv-x="1351" d="M125 477v500q0 238 143 372t410 134q264 0 406.5 -134t142.5 -372v-500q0 -238 -142.5 -372t-406.5 -134q-267 0 -410 134t-143 372zM219 477q0 -198 118.5 -308t340.5 -110q219 0 337 110t118 308v500q0 198 -118 308t-337 110q-222 0 -340.5 -110t-118.5 -308v-500z " />
<glyph unicode="&#x41f;" horiz-adv-x="1376" d="M168 27v1400q0 15 6 21t21 6h989q13 0 18.5 -6t5.5 -21v-1400q0 -15 -5.5 -21t-18.5 -6h-43q-15 0 -21 6t-6 21v1339h-852v-1339q0 -15 -5.5 -21t-18.5 -6h-43q-15 0 -21 6t-6 21z" />
<glyph unicode="&#x420;" horiz-adv-x="1265" d="M168 27v1400q0 15 6 21t21 6h550q209 0 331 -118.5t122 -327.5q0 -206 -121.5 -324.5t-331.5 -118.5h-483v-538q0 -15 -5.5 -21t-18.5 -6h-43q-15 0 -21 6t-6 21zM262 653h475q168 0 265.5 94.5t97.5 260.5q0 168 -97.5 263t-265.5 95h-475v-713z" />
<glyph unicode="&#x421;" horiz-adv-x="1298" d="M125 477v502q0 237 141.5 370.5t409.5 133.5q231 0 357.5 -88t180.5 -269q4 -14 0 -21t-18 -13l-37 -13q-15 -3 -23 0.5t-12 16.5q-47 156 -150 227.5t-298 71.5q-224 0 -340.5 -108.5t-116.5 -305.5v-506q0 -195 118.5 -305.5t338.5 -110.5q135 0 226 36t142.5 102 t83.5 172q11 24 35 16l39 -14q25 -8 17 -33q-36 -121 -99 -199.5t-174 -123t-270 -44.5q-264 0 -407.5 134.5t-143.5 371.5z" />
<glyph unicode="&#x422;" horiz-adv-x="1089" d="M27 1391v36q0 15 5.5 21t20.5 6h983q15 0 21 -6t6 -21v-36q0 -25 -27 -25h-444v-1339q0 -27 -25 -27h-43q-15 0 -20.5 6t-5.5 21v1339h-445q-15 0 -20.5 5.5t-5.5 19.5z" />
<glyph unicode="&#x423;" horiz-adv-x="1191" d="M12.5 1446q3.5 8 16.5 8h45q23 0 31.5 -3.5t17.5 -18.5l481 -918l463 918q7 15 15 18.5t32 3.5h43q26 0 14 -27l-708 -1404q-8 -14 -16.5 -18.5t-28.5 -4.5h-47q-29 0 -15 27l199 385l-541 1015q-5 11 -1.5 19z" />
<glyph unicode="&#x424;" horiz-adv-x="1687" d="M102 653v158q0 246 143 383t410 137h142v148q0 15 5 20.5t19 5.5h43q15 0 21 -5.5t6 -20.5v-148h141q267 0 410 -137t143 -383v-158q0 -246 -143 -383t-410 -137h-141v-147q0 -15 -6 -21t-21 -6h-43q-13 0 -18.5 6t-5.5 21v147h-142q-267 0 -410 137t-143 383zM199 651 q0 -205 116.5 -318.5t339.5 -113.5h142v1026h-142q-223 0 -339.5 -113.5t-116.5 -318.5v-162zM891 219h141q223 0 340 113.5t117 318.5v162q0 205 -117 318.5t-340 113.5h-141v-1026z" />
<glyph unicode="&#x425;" horiz-adv-x="1243" d="M35 31l526 706l-512 693q-7 9 -3 16.5t17 7.5h54q21 0 29.5 -4t17.5 -18l459 -619l456 619q9 14 17.5 18t29.5 4h54q12 0 16 -7.5t-4 -16.5l-510 -691l524 -708q9 -12 7 -21.5t-17 -9.5h-53q-23 0 -31.5 4t-17.5 19l-476 643l-471 -643q-11 -15 -19 -19t-30 -4h-51 q-31 0 -12 31z" />
<glyph unicode="&#x426;" horiz-adv-x="1411" d="M168 27v1400q0 15 6 21t21 6h43q13 0 18.5 -6t5.5 -21v-1339h846v1339q0 27 25 27h43q15 0 20.5 -6t5.5 -21v-1339h139q25 0 25 -25v-350q0 -15 -5.5 -20.5t-19.5 -5.5h-41q-14 0 -20 5.5t-6 20.5v287h-1079q-15 0 -21 6t-6 21z" />
<glyph unicode="&#x427;" horiz-adv-x="1275" d="M86 1059v368q0 27 25 27h45q13 0 18.5 -6t5.5 -21v-368q0 -211 95.5 -312.5t324.5 -101.5q92 0 191 11t146.5 20t74.5 16v735q0 15 5.5 21t20.5 6h43q27 0 27 -27v-1400q0 -27 -27 -27h-43q-15 0 -20.5 6t-5.5 21v575q-186 -45 -416 -45q-273 0 -391.5 126t-118.5 376z " />
<glyph unicode="&#x428;" horiz-adv-x="1851" d="M168 27v1400q0 15 6 21t21 6h43q13 0 18.5 -6t5.5 -21v-1339h617v1339q0 15 5.5 21t18.5 6h45q25 0 25 -27v-1339h616v1339q0 27 25 27h43q15 0 20.5 -6t5.5 -21v-1400q0 -15 -5.5 -21t-20.5 -6h-1462q-15 0 -21 6t-6 21z" />
<glyph unicode="&#x429;" horiz-adv-x="1894" d="M168 27v1400q0 15 6 21t21 6h43q13 0 18.5 -6t5.5 -21v-1339h617v1339q0 15 5.5 21t18.5 6h45q25 0 25 -27v-1339h616v1339q0 27 25 27h43q15 0 20.5 -6t5.5 -21v-1339h142q15 0 20.5 -5.5t5.5 -19.5v-350q0 -15 -5.5 -20.5t-20.5 -5.5h-39q-15 0 -21 5.5t-6 20.5v287 h-1564q-15 0 -21 6t-6 21z" />
<glyph unicode="&#x42a;" horiz-adv-x="1478" d="M27 1391v36q0 15 5.5 21t18.5 6h400q13 0 18.5 -6t5.5 -21v-538h483q210 0 331.5 -118.5t121.5 -324.5q0 -210 -121.5 -328t-331.5 -118h-550q-15 0 -21 6t-6 21v1339h-330q-24 0 -24 25zM475 88h475q168 0 265.5 95t97.5 263q0 166 -97.5 260.5t-265.5 94.5h-475v-713z " />
<glyph unicode="&#x42b;" horiz-adv-x="1722" d="M168 27v1400q0 15 6 21t21 6h43q13 0 18.5 -6t5.5 -21v-538h483q210 0 331.5 -118.5t121.5 -324.5q0 -209 -122 -327.5t-331 -118.5h-550q-15 0 -21 6t-6 21zM262 88h475q168 0 265.5 95t97.5 263q0 166 -97.5 260.5t-265.5 94.5h-475v-713zM1460 27v1400q0 15 6 21t21 6 h43q13 0 18.5 -6t5.5 -21v-1400q0 -15 -5.5 -21t-18.5 -6h-43q-15 0 -21 6t-6 21z" />
<glyph unicode="&#x42c;" horiz-adv-x="1265" d="M168 27v1400q0 15 6 21t21 6h43q13 0 18.5 -6t5.5 -21v-538h483q210 0 331.5 -118.5t121.5 -324.5q0 -209 -122 -327.5t-331 -118.5h-550q-15 0 -21 6t-6 21zM262 88h475q168 0 265.5 95t97.5 263q0 166 -97.5 260.5t-265.5 94.5h-475v-713z" />
<glyph unicode="&#x42d;" horiz-adv-x="1306" d="M88 336q-8 24 18 33l39 14q25 9 33 -16q32 -105 84.5 -171t143.5 -101.5t225 -35.5q221 0 338.5 109.5t117.5 304.5v219h-671q-25 0 -25 25v37q0 15 5.5 20.5t19.5 5.5h671v203q0 195 -116 303.5t-340 108.5q-195 0 -298.5 -71t-150.5 -228q-4 -13 -11.5 -16.5t-20.5 1.5 l-39 13q-25 8 -17 34q53 179 180 267t357 88q268 0 410.5 -132.5t142.5 -369.5v-506q0 -237 -144 -370.5t-409 -133.5q-160 0 -270.5 44t-173.5 122t-99 199z" />
<glyph unicode="&#x42e;" horiz-adv-x="1867" d="M168 27v1400q0 15 6 21t21 6h43q13 0 18.5 -6t5.5 -21v-647h393v201q0 237 141 369.5t406 132.5q262 0 402.5 -133t140.5 -369v-508q0 -236 -140.5 -369t-402.5 -133q-265 0 -406 132.5t-141 369.5v219h-393v-665q0 -15 -5.5 -21t-18.5 -6h-43q-15 0 -21 6t-6 21z M750 475q0 -197 116 -306.5t336 -109.5q216 0 332.5 109.5t116.5 306.5v504q0 197 -116.5 306.5t-332.5 109.5q-220 0 -336 -109.5t-116 -306.5v-504z" />
<glyph unicode="&#x42f;" horiz-adv-x="1308" d="M82 27l217 454q60 126 154 168q-163 19 -252.5 120.5t-89.5 274.5q0 194 110.5 302t304.5 108h588q15 0 21 -6t6 -21v-1400q0 -15 -6 -21t-21 -6h-43q-13 0 -18.5 6t-5.5 21v612h-347q-126 0 -195 -44.5t-120 -150.5l-197 -421q-8 -14 -18 -18.5t-33 -4.5h-41 q-29 0 -14 27zM209 1044q0 -152 86.5 -234.5t241.5 -82.5h510v639h-510q-157 0 -242.5 -84t-85.5 -238z" />
<glyph unicode="&#x430;" horiz-adv-x="1042" d="M82 283q0 170 102 239.5t342 69.5q49 0 102.5 -3t86 -6.5t71.5 -8.5t43 -5v113q0 56 -7.5 100t-28 86t-54.5 70t-90.5 44.5t-132.5 16.5q-230 0 -321 -174q-13 -18 -33 -10l-33 12q-25 12 -12 35q114 217 403 217q116 0 197 -31.5t123.5 -89.5t60 -125t17.5 -153v-539 q0 -52 -15 -74.5t-59 -41.5q-124 -54 -326 -54q-130 0 -216.5 20t-134 61.5t-66.5 96t-19 134.5zM172 285q0 -61 14 -102.5t50.5 -74t104.5 -48t171 -15.5q167 0 270 41q30 12 38.5 26t8.5 50v334q-2 0 -44.5 5t-75.5 8t-88 6t-103 3q-191 0 -268.5 -53t-77.5 -180z" />
<glyph unicode="&#x431;" horiz-adv-x="1128" d="M135 362v521q0 173 26.5 287t91 190t170 108.5t265.5 32.5h76q113 0 166 29q13 6 21 3.5t12 -17.5l12 -33q4 -14 1.5 -19.5t-15.5 -13.5q-59 -33 -195 -33h-78q-139 0 -228 -26t-143.5 -89t-76 -158t-21.5 -243v-51q20 30 46.5 57t71 57.5t111.5 49t146 18.5 q208 0 319 -103.5t111 -287.5v-279q0 -186 -113.5 -288.5t-332.5 -102.5q-216 0 -329.5 103t-113.5 288zM223 362q0 -148 91.5 -229.5t263.5 -81.5q176 0 267 81.5t91 229.5v279q0 148 -91 229.5t-267 81.5q-83 0 -151.5 -24.5t-109 -61.5t-63.5 -69t-31 -58v-377z" />
<glyph unicode="&#x432;" horiz-adv-x="1087" d="M145 25v999q0 25 25 25h506q135 0 208.5 -69.5t73.5 -197.5q0 -170 -135 -233q172 -61 172 -264q0 -134 -77 -209.5t-213 -75.5h-535q-25 0 -25 25zM233 76h457q102 0 158.5 56.5t56.5 158.5q0 103 -57.5 159t-161.5 56h-453v-430zM233 580h441q90 0 143 51.5t53 146.5 t-52.5 145t-153.5 50h-431v-393z" />
<glyph unicode="&#x433;" horiz-adv-x="868" d="M145 25v1001q0 23 23 23h643q23 0 23 -23v-35q0 -22 -23 -22h-578v-944q0 -25 -24 -25h-41q-23 0 -23 25z" />
<glyph unicode="&#x434;" horiz-adv-x="1191" d="M27 57q0 25 24 25h72q34 28 56.5 60.5t46.5 98t36 179.5t12 276v330q0 23 25 23h680q13 0 17.5 -5t4.5 -18v-944h125q23 0 23 -25v-317q0 -25 -23 -25h-39q-24 0 -24 25v260h-950v-260q0 -25 -25 -25h-37q-24 0 -24 25v317zM229 82h686v887h-555v-277q0 -271 -33.5 -406 t-97.5 -204z" />
<glyph unicode="&#x435;" horiz-adv-x="1079" d="M104 375v276q0 201 114 314.5t329 113.5q217 0 329.5 -114.5t112.5 -309.5v-104q0 -45 -47 -45h-749v-139q0 -150 87 -235t255 -85q137 0 222.5 52t139.5 149q14 22 37 10l29 -16q24 -12 8 -37q-127 -234 -436 -234q-214 0 -322.5 107.5t-108.5 296.5zM193 578h708v81 q0 161 -89.5 251.5t-264.5 90.5t-264.5 -90.5t-89.5 -251.5v-81z" />
<glyph unicode="&#x436;" horiz-adv-x="1519" d="M53 27l189 374q32 64 69.5 101.5t91.5 54.5l-333 465q-18 27 14 27h37q22 0 30 -3t17 -16l321 -450h46h180v446q0 23 26 23h37q25 0 25 -23v-446h182h45l320 450q9 13 17.5 16t31.5 3h35q19 0 22.5 -6.5t-6.5 -20.5l-336 -465q55 -17 93.5 -54.5t70.5 -101.5l186 -374 q15 -27 -12 -27h-41q-19 0 -26 3.5t-13 16.5l-170 345q-35 71 -84.5 103t-132.5 32h-182v-475q0 -25 -25 -25h-37q-15 0 -20.5 5.5t-5.5 19.5v475h-180q-83 0 -133 -32t-85 -103l-170 -345q-6 -12 -13 -16t-25 -4h-41q-27 0 -15 27z" />
<glyph unicode="&#x437;" horiz-adv-x="1048" d="M74 258q-11 24 16 33l35 10q26 9 33 -16q5 -13 7 -18.5t17.5 -34t31.5 -47t48 -46.5t68.5 -45t90.5 -30t116 -13q163 0 244 63.5t81 170.5q0 109 -59.5 162t-186.5 53h-235q-23 0 -23 26v25q0 24 23 24h231q112 0 171 53t59 148q0 98 -79 160.5t-235 62.5q-45 0 -86 -7 t-72 -19t-58 -27t-46.5 -33t-34.5 -34.5t-26 -34t-17.5 -29.5t-11 -22t-4.5 -11q-4 -15 -12 -19t-23 1l-33 10q-25 9 -16 35q7 19 18 42t45.5 67t79.5 77t123.5 58.5t173.5 25.5q201 0 302.5 -83t101.5 -214q0 -179 -158 -237v-4q96 -27 138 -91.5t42 -170.5 q0 -141 -103.5 -224.5t-315.5 -83.5q-72 0 -135 14.5t-106.5 35t-81.5 51.5t-60 55.5t-41 56t-25 45t-12 29.5z" />
<glyph unicode="&#x438;" horiz-adv-x="1150" d="M145 25v1001q0 23 23 23h41q24 0 24 -23v-696q0 -105 -12 -207h2q21 34 103 149l594 766q8 11 22 11h41q23 0 23 -23v-1001q0 -25 -23 -25h-41q-24 0 -24 25v675q0 105 14 224h-4q-24 -38 -111 -156l-584 -754q-8 -14 -24 -14h-41q-23 0 -23 25z" />
<glyph unicode="&#x439;" horiz-adv-x="1150" d="M145 25v1001q0 23 23 23h41q24 0 24 -23v-696q0 -105 -12 -207h2q21 34 103 149l594 766q8 11 22 11h41q23 0 23 -23v-1001q0 -25 -23 -25h-41q-24 0 -24 25v675q0 105 14 224h-4q-24 -38 -111 -156l-584 -754q-8 -14 -24 -14h-41q-23 0 -23 25zM272 1438q-5 18 11 24 l34 13q17 5 25 -11q25 -95 83 -140.5t155 -45.5q95 0 153 45.5t84 140.5q6 17 23 11l34 -13q10 -5 13 -9.5t0 -14.5q-34 -116 -109 -172t-198 -56q-244 0 -308 228z" />
<glyph unicode="&#x43a;" horiz-adv-x="1052" d="M145 25v1001q0 23 25 23h39q24 0 24 -23v-446h279h20l357 450q9 13 17 16t30 3h37q38 0 14 -27l-364 -457q68 -13 112.5 -52.5t79.5 -111.5l189 -374q12 -27 -15 -27h-41q-18 0 -25.5 4t-13.5 16l-170 345q-35 71 -84.5 103t-132.5 32h-289v-475q0 -25 -24 -25h-39 q-25 0 -25 25z" />
<glyph unicode="&#x43b;" d="M6 25q-8 17 10 26q28 13 45 22.5t43.5 32t42.5 49t35.5 73.5t30 106t18 146t7.5 194v352q0 13 4.5 18t17.5 5h666q24 0 24 -23v-1001q0 -25 -24 -25h-41q-23 0 -23 25v942h-540v-297q0 -154 -15 -270t-38 -186.5t-60.5 -121t-71.5 -74.5t-82 -45q-20 -8 -28 11z" />
<glyph unicode="&#x43c;" horiz-adv-x="1302" d="M145 25v997q0 16 5 21.5t22 5.5h29q24 0 37 -21l417 -735l412 733q6 14 12 18.5t19 4.5h35q15 0 20.5 -6t5.5 -21v-997q0 -14 -5.5 -19.5t-20.5 -5.5h-31q-17 0 -22 5t-5 20v653q0 85 15 235h-5q-39 -80 -100 -190l-287 -508q-6 -12 -12.5 -16t-19.5 -4h-21 q-14 0 -21 3.5t-14 16.5l-284 498q-49 83 -107 202h-4q12 -176 12 -253v-637q0 -15 -4 -20t-18 -5h-35q-15 0 -20 5t-5 20z" />
<glyph unicode="&#x43d;" horiz-adv-x="1140" d="M145 25v1001q0 23 23 23h41q24 0 24 -23v-446h674v446q0 23 25 23h41q22 0 22 -23v-1001q0 -25 -22 -25h-41q-25 0 -25 25v475h-674v-475q0 -25 -24 -25h-41q-23 0 -23 25z" />
<glyph unicode="&#x43e;" horiz-adv-x="1099" d="M111 330v389q0 166 119 263t319 97q203 0 321.5 -96.5t118.5 -263.5v-389q0 -167 -118.5 -263t-321.5 -96q-201 0 -319.5 96.5t-118.5 262.5zM199 330q0 -128 96 -203.5t254 -75.5q160 0 256 75.5t96 203.5v391q0 128 -95.5 203t-256.5 75q-158 0 -254 -75t-96 -203v-391 z" />
<glyph unicode="&#x43f;" horiz-adv-x="1130" d="M145 25v1001q0 23 23 23h795q13 0 17.5 -5t4.5 -18v-1001q0 -14 -4.5 -19.5t-17.5 -5.5h-41q-13 0 -18 5.5t-5 19.5v944h-666v-944q0 -25 -24 -25h-41q-23 0 -23 25z" />
<glyph unicode="&#x440;" d="M139 -426v1333q0 49 16 71t66 42q145 59 342 59q422 0 422 -409v-301q0 -192 -99 -295t-304 -103q-175 0 -355 88v-485q0 -25 -22 -25h-41q-25 0 -25 25zM227 141q176 -90 351 -90q319 0 319 320v297q0 329 -344 329q-153 0 -274 -47q-34 -14 -43 -25.5t-9 -43.5v-740z " />
<glyph unicode="&#x441;" horiz-adv-x="1050" d="M109 369v313q0 188 110 292.5t326 104.5q182 0 282 -71.5t140 -208.5q8 -25 -15 -35l-34 -12q-24 -8 -33 16q-38 121 -116.5 176t-227.5 55q-169 0 -257.5 -83t-88.5 -230v-319q0 -148 89.5 -232t256.5 -84q145 0 229 59.5t119 184.5q8 24 33 16l36 -12q25 -11 15 -33 q-45 -148 -150 -221.5t-282 -73.5q-212 0 -322 104.5t-110 293.5z" />
<glyph unicode="&#x442;" horiz-adv-x="903" d="M31 991v35q0 13 4.5 18t17.5 5h797q24 0 24 -23v-35q0 -22 -24 -22h-352v-944q0 -25 -25 -25h-39q-24 0 -24 25v944h-357q-13 0 -17.5 5t-4.5 17z" />
<glyph unicode="&#x443;" horiz-adv-x="1124" d="M135 381v645q0 23 25 23h39q24 0 24 -23v-641q0 -159 77.5 -239t240.5 -80q176 0 350 69v891q0 23 24 23h41q23 0 23 -23v-1102q0 -442 -426 -442q-281 0 -399 231q-18 27 10 39l26 15q24 12 39 -11q46 -94 121.5 -144t200.5 -50q340 0 340 358v133q-179 -67 -359 -67 q-202 0 -299.5 102t-97.5 293z" />
<glyph unicode="&#x444;" horiz-adv-x="1511" d="M106 383v268q0 98 25.5 174t66.5 123t99 77.5t117.5 42t126.5 11.5q84 -3 172 -12v424q0 25 24 25h39q25 0 25 -25v-424q89 9 170 12q434 0 434 -413v-283q0 -98 -25.5 -172.5t-66.5 -119t-99.5 -72.5t-116.5 -38t-126 -10q-101 3 -170 13v-410q0 -25 -25 -25h-39 q-24 0 -24 25v410q-68 -10 -172 -13q-435 0 -435 412zM195 385q0 -83 23 -145t57.5 -97t84 -56t92 -27.5t91.5 -6.5q74 0 172 10v924q-98 10 -172 10q-48 0 -91.5 -8t-92 -31t-83.5 -60t-58 -101t-23 -148v-264zM799 63q95 -10 168 -10q49 0 91.5 6.5t92 27.5t84 56t57.5 97 t23 145v279q0 83 -23 145.5t-57.5 97t-83.5 56t-92 28t-92 6.5q-73 0 -168 -10v-924z" />
<glyph unicode="&#x445;" horiz-adv-x="976" d="M39 25l395 516l-377 483q-14 25 19 25h41q19 0 26 -3.5t15 -15.5l331 -428l330 428q9 12 16 15.5t25 3.5h41q33 0 14 -25l-370 -485l395 -514q16 -25 -16 -25h-43q-18 0 -24.5 3.5t-16.5 16.5l-353 457l-350 -457q-7 -13 -15 -16.5t-26 -3.5h-41q-32 0 -16 25z" />
<glyph unicode="&#x446;" horiz-adv-x="1161" d="M145 25v1001q0 23 23 23h41q24 0 24 -23v-944h652v944q0 13 4.5 18t17.5 5h41q23 0 23 -23v-944h125q22 0 22 -25v-317q0 -25 -22 -25h-39q-25 0 -25 25v260h-864q-23 0 -23 25z" />
<glyph unicode="&#x447;" horiz-adv-x="1034" d="M76 758v268q0 23 22 23h41q25 0 25 -23v-266q0 -149 79 -217t251 -68q130 0 307 53v498q0 23 24 23h41q23 0 23 -23v-1001q0 -25 -23 -25h-41q-24 0 -24 25v419q-163 -49 -318 -49q-211 0 -309 88.5t-98 274.5z" />
<glyph unicode="&#x448;" horiz-adv-x="1554" d="M145 25v1001q0 23 23 23h41q24 0 24 -23v-944h500v944q0 23 25 23h39q24 0 24 -23v-944h500v944q0 23 25 23h38q25 0 25 -23v-1001q0 -25 -25 -25h-1216q-23 0 -23 25z" />
<glyph unicode="&#x449;" horiz-adv-x="1595" d="M145 25v1001q0 23 23 23h41q24 0 24 -23v-944h500v944q0 23 25 23h39q24 0 24 -23v-944h500v944q0 23 25 23h38q25 0 25 -23v-944h121q22 0 22 -25v-317q0 -25 -22 -25h-39q-25 0 -25 25v260h-1298q-23 0 -23 25z" />
<glyph unicode="&#x44a;" horiz-adv-x="1249" d="M29 991v35q0 23 24 23h353q22 0 22 -23v-326h397q170 0 264.5 -90.5t94.5 -257.5q0 -169 -94.5 -260.5t-264.5 -91.5h-460q-25 0 -25 25v944h-287q-24 0 -24 22zM428 80h387q133 0 206 70.5t73 201.5t-73 200t-206 69h-387v-541z" />
<glyph unicode="&#x44b;" horiz-adv-x="1419" d="M145 25v1001q0 23 23 23h41q24 0 24 -23v-326h398q169 0 262.5 -90.5t93.5 -257.5q0 -169 -94 -260.5t-262 -91.5h-463q-23 0 -23 25zM233 80h388q132 0 204 70t72 202q0 131 -71.5 200t-204.5 69h-388v-541zM1188 25v1001q0 13 4.5 18t17.5 5h41q23 0 23 -23v-1001 q0 -14 -5 -19.5t-18 -5.5h-41q-13 0 -17.5 5.5t-4.5 19.5z" />
<glyph unicode="&#x44c;" horiz-adv-x="1052" d="M145 25v1001q0 23 23 23h41q24 0 24 -23v-326h398q169 0 262.5 -90.5t93.5 -257.5q0 -169 -94 -260.5t-262 -91.5h-463q-23 0 -23 25zM233 80h388q132 0 204 70t72 202q0 131 -71.5 200t-204.5 69h-388v-541z" />
<glyph unicode="&#x44d;" horiz-adv-x="1046" d="M75.5 288.5q3.5 6.5 16.5 12.5l35 10q15 4 22 1t13 -17q36 -125 119 -184.5t227 -59.5q166 0 255 84t89 232v129l-471 2q-25 0 -25 22v33q0 25 25 25h471v108q0 148 -87.5 230.5t-256.5 82.5q-149 0 -227.5 -55t-114.5 -176q-9 -24 -33 -16l-35 12q-24 9 -16 35 q40 137 140 208.5t282 71.5q214 0 325 -104.5t111 -292.5v-313q0 -188 -111 -293t-321 -105q-177 0 -282 74t-150 223q-4 14 -0.5 20.5z" />
<glyph unicode="&#x44e;" horiz-adv-x="1517" d="M145 25v1001q0 23 23 23h41q24 0 24 -23v-453h310v150q0 166 116 261t314 95q200 0 315 -95t115 -261v-397q0 -165 -115 -260t-315 -95q-198 0 -314 95t-116 260v166h-310v-467q0 -25 -24 -25h-41q-23 0 -23 25zM631 324q0 -126 93.5 -199.5t248.5 -73.5q156 0 249 73 t93 200v401q0 127 -93 200.5t-249 73.5q-155 0 -248.5 -74t-93.5 -200v-401z" />
<glyph unicode="&#x44f;" horiz-adv-x="1073" d="M85 8q-3 8 7 21l264 379q-124 17 -193 99.5t-69 213.5q0 154 88.5 241t243.5 87h479q25 0 25 -25v-999q0 -25 -23 -25h-41q-24 0 -24 25v372h-393l-259 -377q-7 -13 -15 -16.5t-28 -3.5h-38q-21 0 -24 8zM184 721q0 -114 67 -179t183 -65h408v494h-408q-116 0 -183 -66.5 t-67 -183.5z" />
<glyph unicode="&#x451;" horiz-adv-x="1079" d="M104 375v276q0 201 114 314.5t329 113.5q217 0 329.5 -114.5t112.5 -309.5v-104q0 -45 -47 -45h-749v-139q0 -150 87 -235t255 -85q137 0 222.5 52t139.5 149q14 22 37 10l29 -16q24 -12 8 -37q-127 -234 -436 -234q-214 0 -322.5 107.5t-108.5 296.5zM193 578h708v81 q0 161 -89.5 251.5t-264.5 90.5t-264.5 -90.5t-89.5 -251.5v-81zM297 1325v14q0 26 10.5 36.5t36.5 10.5h12q28 0 37.5 -10t9.5 -37v-14q0 -27 -9 -36t-38 -9h-12q-27 0 -37 9.5t-10 35.5zM688 1325v14q0 27 10 37t39 10h11q26 0 36.5 -10.5t10.5 -36.5v-14q0 -26 -10 -35.5 t-37 -9.5h-11q-29 0 -39 9.5t-10 35.5z" />
<glyph unicode="&#x2000;" horiz-adv-x="918" />
<glyph unicode="&#x2001;" horiz-adv-x="1836" />
<glyph unicode="&#x2002;" horiz-adv-x="918" />
<glyph unicode="&#x2003;" horiz-adv-x="1836" />
<glyph unicode="&#x2004;" horiz-adv-x="612" />
<glyph unicode="&#x2005;" horiz-adv-x="459" />
<glyph unicode="&#x2006;" horiz-adv-x="306" />
<glyph unicode="&#x2007;" horiz-adv-x="306" />
<glyph unicode="&#x2008;" horiz-adv-x="229" />
<glyph unicode="&#x2009;" horiz-adv-x="367" />
<glyph unicode="&#x200a;" horiz-adv-x="102" />
<glyph unicode="&#x2010;" horiz-adv-x="872" d="M131 526v35q0 25 27 25h559q24 0 24 -25v-35q0 -14 -5.5 -19t-18.5 -5h-559q-15 0 -21 5.5t-6 18.5z" />
<glyph unicode="&#x2011;" horiz-adv-x="872" d="M131 526v35q0 25 27 25h559q24 0 24 -25v-35q0 -14 -5.5 -19t-18.5 -5h-559q-15 0 -21 5.5t-6 18.5z" />
<glyph unicode="&#x2012;" horiz-adv-x="872" d="M131 526v35q0 25 27 25h559q24 0 24 -25v-35q0 -14 -5.5 -19t-18.5 -5h-559q-15 0 -21 5.5t-6 18.5z" />
<glyph unicode="&#x2013;" horiz-adv-x="1185" d="M131 530v35q0 25 25 25h874q27 0 27 -25v-35q0 -13 -6 -18.5t-21 -5.5h-874q-25 0 -25 24z" />
<glyph unicode="&#x2014;" horiz-adv-x="1595" d="M129 530v35q0 25 27 25h1284q24 0 24 -25v-35q0 -14 -5 -19t-19 -5h-1284q-27 0 -27 24z" />
<glyph unicode="&#x2018;" horiz-adv-x="378" d="M113 1114l112 316q8 24 29 24h18q20 0 17 -18l-78 -322q-4 -19 -12 -25t-25 -6h-35q-38 0 -26 31z" />
<glyph unicode="&#x2019;" horiz-adv-x="370" d="M117 1102l78 321q4 19 11.5 25t24.5 6h35q39 0 27 -31l-113 -315q-8 -25 -28 -25h-19q-19 0 -16 19z" />
<glyph unicode="&#x201a;" horiz-adv-x="313" d="M115 201q0 24 22 24h41q25 0 25 -24l-21 -414q0 -25 -24 -25h-21q-22 0 -22 25v414z" />
<glyph unicode="&#x201c;" horiz-adv-x="593" d="M113 1114l112 316q8 24 29 24h18q20 0 17 -18l-78 -322q-4 -19 -12 -25t-25 -6h-35q-38 0 -26 31zM328 1114l112 316q8 24 29 24h16q12 0 16 -4t3 -14l-78 -322q-4 -19 -12 -25t-25 -6h-35q-38 0 -26 31z" />
<glyph unicode="&#x201d;" horiz-adv-x="585" d="M117 1102l78 321q4 19 11.5 25t24.5 6h35q39 0 27 -31l-113 -315q-8 -25 -28 -25h-19q-19 0 -16 19zM332 1102l78 321q4 19 11.5 25t24.5 6h35q36 0 27 -31l-113 -315q-8 -25 -28 -25h-19q-19 0 -16 19z" />
<glyph unicode="&#x201e;" horiz-adv-x="546" d="M43 -229l78 321q4 19 12 25t25 6h35q35 0 26 -31l-113 -317q-5 -13 -11 -18t-19 -5h-17q-19 0 -16 19zM258 -229l78 321q3 18 11 24.5t26 6.5h35q36 0 24 -31l-110 -317q-9 -23 -31 -23h-17q-12 0 -15 4t-1 15z" />
<glyph unicode="&#x2022;" horiz-adv-x="559" d="M178 539q0 44 29 73t72 29q44 0 73 -29t29 -73q0 -43 -29 -73t-73 -30q-43 0 -72 30t-29 73z" />
<glyph unicode="&#x2026;" horiz-adv-x="1142" d="M106 45v12q0 32 12.5 44t45.5 12h10q32 0 43.5 -12t11.5 -44v-12q0 -31 -11.5 -43t-43.5 -12h-10q-33 0 -45.5 11.5t-12.5 43.5zM510 45v12q0 32 11.5 44t43.5 12h10q33 0 45.5 -12t12.5 -44v-12q0 -31 -13 -43t-45 -12h-10q-32 0 -43.5 11.5t-11.5 43.5zM911 45v12 q0 32 12.5 44t45.5 12h10q32 0 43.5 -12t11.5 -44v-12q0 -31 -11.5 -43t-43.5 -12h-10q-33 0 -45.5 11.5t-12.5 43.5z" />
<glyph unicode="&#x202f;" horiz-adv-x="367" />
<glyph unicode="&#x2039;" horiz-adv-x="669" d="M84 522q-16 16 0 31l420 424q16 14 33 0l24 -27q16 -16 0 -32l-377 -379l377 -375q14 -17 0 -31l-29 -29q-15 -15 -32 0z" />
<glyph unicode="&#x203a;" horiz-adv-x="669" d="M106 918q-15 15 0 32l27 27q15 15 31 0l422 -424q13 -16 0 -31l-418 -418q-16 -16 -33 0l-26 29q-17 14 0 31l374 375z" />
<glyph unicode="&#x205f;" horiz-adv-x="459" />
<glyph unicode="&#x20ac;" horiz-adv-x="1480" d="M68 551l8 27q6 22 30 22h201v234h-145q-15 0 -19.5 5t-1.5 19l9 27q8 22 30 22h125v84q0 231 143.5 362.5t409.5 131.5q197 0 315.5 -62t182.5 -186q16 -31 -13 -43l-30 -14q-26 -13 -43 12q-48 98 -145.5 151.5t-266.5 53.5q-220 0 -337.5 -106.5t-117.5 -295.5v-88h693 q24 0 18 -22l-8 -29q-8 -22 -33 -22h-674v-234h607q24 0 16 -22l-8 -29q-6 -23 -33 -23h-578v-67q2 -188 120 -295t335 -107q176 0 275.5 59t146.5 165q13 26 41 12l33 -14q28 -14 10 -43q-61 -133 -181 -200t-325 -67q-261 0 -404.5 128.5t-146.5 361.5v67h-221 q-26 0 -18 25z" />
<glyph unicode="&#x2122;" horiz-adv-x="1284" d="M92 1386v17q0 14 2.5 17t14.5 3h426q12 0 15 -3.5t3 -16.5v-17q0 -12 -3 -15t-15 -3h-183v-442q0 -19 -22 -19h-15q-12 0 -16 4t-4 15v442h-186q-12 0 -14.5 3t-2.5 15zM608 926v477q0 13 4 16.5t17 3.5h12q16 0 23 -12l206 -315l207 313q11 14 23 14h14q11 0 15 -3.5 t4 -14.5v-479q0 -11 -3.5 -15t-15.5 -4h-18q-21 0 -21 19v280q0 16 1 52t1 55q-9 -14 -45 -72l-133 -201q-10 -12 -25 -12h-8q-14 0 -22 10l-131 197l-49 74q2 -35 2 -103v-280q0 -11 -3.5 -15t-15.5 -4h-18q-13 0 -17 4t-4 15z" />
<glyph unicode="&#x25fc;" horiz-adv-x="1044" d="M0 0v1044h1044v-1044h-1044z" />
</font>
</defs>
</svg>
